<?xml version="1.0" encoding="UTF-8"?><svg id="Capa_2" xmlns="http://www.w3.org/2000/svg" viewBox="0 0 289.36 142"><defs><style>.cls-1{fill:#881c33;}.cls-1,.cls-2,.cls-3,.cls-4,.cls-5,.cls-6,.cls-7,.cls-8,.cls-9,.cls-10{fill-rule:evenodd;}.cls-2{fill:#f6d6b2;}.cls-3,.cls-11{fill:#ffca05;}.cls-12,.cls-4,.cls-13{fill:#fff;}.cls-14{stroke:#231f20;stroke-width:.57px;}.cls-14,.cls-15{fill:none;stroke-miterlimit:22.93;}.cls-5{fill:#7b5328;}.cls-6{fill:#fff100;}.cls-16,.cls-9{fill:#770f3a;}.cls-15{stroke:#800040;stroke-width:.22px;}.cls-17{fill:#eb8323;}.cls-18,.cls-10{fill:#3e102c;}.cls-7{fill:#800040;}.cls-13{font-family:Nulshock-Bold, Nulshock;font-size:12.83px;font-weight:700;}</style></defs><g id="Capa_1-2"><path class="cls-11" d="M105.92,68.88c-.57-3.61-1.64-6.8-3.18-9.48-1.55-2.69-3.5-4.74-5.76-6.12,1.19-1.87,1.8-3.77,1.64-5.79-.34-4.43-4.27-7.65-8.63-10.21,5.04-23.64-12.48-29.33-28.65-33.98-1.67-2.26-4.51-3.55-7.44-3.26-2.73.27-4.89,1.85-5.98,4.25-.7.23-1.54.49-1.96.62-.53.16-.95.29-1.13.36-16.29,5.92-30.44,11.07-23.78,33.65-4.37,2.54-8.23,5.74-8.49,10.19-.14,2.37.74,4.51,2.42,6.61-1.89,1.46-3.53,3.41-4.84,5.84-.73,1.36-1.36,2.86-1.86,4.47-2.73.35-5.07,1.73-6.56,3.9-.04.06-.08.11-.11.17-.56.86-1.01,1.82-1.29,2.89-1.24,4.76,1.02,10.84,7.74,13.27,1.58,5.45,4.46,9.4,8.16,11.15-.18,3.76.55,7.07,2.22,10.24.68,1.28,1.52,2.5,2.46,3.68.5.98,1.16,1.89,2.14,2.54-.17.94-.18,2.11.19,3.55.21.8.76,2.03,1.64,3.65.9,1.66,1.65,2.79,2.22,3.38.86.88,1.72,1.37,2.51,1.62.04.39.1.79.21,1.21.57,2.15,2.59,4.23,3.43,5.03,1.95,1.84,3.77,2.77,5.43,2.8.32.72.76,1.38,1.3,1.96.26.28.51.5.7.65.37.39.83.69,1.34.88l.12.04c.29.1.69.31,1.08.5,1.24.62,3.94,1.97,6.58.83.68.63,1.5,1.13,2.43,1.48,1.16.44,2.31.58,3.31.58,1.38,0,2.48-.27,2.92-.4,1.15-.33,2.14-.92,2.95-1.74.84.32,1.76.45,2.73.38,1.49-.11,2.75-.65,3.91-1.19.04-.02.08-.04.12-.06l.29-.14c1.01-.5,2.98-1.46,4-3.76,2.6-.02,4.4-1.86,5.38-2.86l.5-.49c.88-.85,2.37-2.27,2.95-4.47.11-.43.18-.85.22-1.24.51-.14,1.03-.37,1.55-.73,1.32-.9,2.09-2.24,3.12-4.17.11-.21.22-.4.33-.6.78-1.39,1.82-3.28,1.61-6.04,2.77-2.56,5.17-5.37,6.73-8.43,1.66-3.25,2.36-6.6,2.14-10.37,4.83-2.42,8.18-8.47,9.11-16.69.38-3.36.31-6.85-.2-10.11Z"/><path class="cls-3" d="M85.38,106.59c-.12-.29-.18-.38-.54-.28-.6.17-.59,1.22-.95,1.86-.19-1.2.27-2.21.56-3.32.36-1.36.37-2.52,1.06-2.91-.07.45-.25,1.09-.27,1.47-.04.72.17.76.41,1.08.53,0,.74-.11.89-.67.12-.42.25-.94.24-1.38,0,0,.28-.01.27.83,0,.51-1.02,5.12-1.55,5.52-.43.32-.2.14-.28-.06.1-.16.3-.82.35-1.04.12-.55.08-.89-.19-1.09M80.53,118.22c-.11-.26-.17-.37-.51-.37-.51,0-.59.42-.9.88-.14.21-.18.32-.33.5-.06-.91.24-1.15.51-1.65.23-.43.48-.81.74-1.3.6-1.13.9-2.07,1.64-2.34-.23.83-1.21,1.87-.22,2.56.54.63,1.2-1.06,1.37-1.47.31.48-.11,1.28-.3,1.66-.28.56-.51,1.01-.77,1.49-.5.94-1.18,2.38-1.89,2.3.34-.64,1.1-1.29.68-2.25ZM73.12,127.02c-.62-.67-1.09.31-1.68.61.14-1.02,1.18-1.61,1.76-2.2.71-.72,1.46-1.76,2.15-1.62-.49.76-1.28,1.06-.93,2.1.26.47.55.66,1.01.28.15-.12.26-.3.42-.47.18-.2.22-.13.31-.39,0,0,.36-.05-.1.81-.24.45-1.11,1.25-1.5,1.65-.53.54-1.89,2.05-2.38,1.44.19-.12.74-.55.92-.78.32-.4.39-1.07,0-1.42ZM62.65,132.36c.78-.8.94-.64,2.12-1.16.68-.3,1.74-1.06,2.41-.65-.15.14-1.91.89-1.26,1.74.02,1.06,1.2.46,1.67.09,0,0,.4-.04-.17.61-.66.76-3.82,2.12-4.48,1.47.32-.16.82-.26,1.11-.43.39-.23.56-.76.33-1.27-.26-.9-1.07-.32-1.71-.21l-.02-.18ZM59.42,133.28c-.16-.77-.84-1.5-1.42-1.8-.63-.33-4.48-.3-5.09.07-.59.36-1.11,1.04-1.37,1.83l-1.61-.33c-.19-2.68-1.93-3.06-3.19-3.58-1.98-.81-2.77-1.71-4.37.21l-1.43-.91c.1-3.32-1.05-3.53-3.19-5.7-.3-.3-.54-.64-.91-.85-.98-.58-1.55-.29-2.39.14-.39-.49-.78-1.03-1.16-1.48.38-1.95.61-2.54-.51-4.42l-1.94-3.47c-.67-.86-1.24-.99-2.37-.91-.17-.67-.6-1.21-.69-1.97.12-.24.19-.3.31-.53.98-1.92.12-3.76-.28-5.4-.59-2.4-.77-3.93-2.7-4.37-.14-1.29-.09-.97-.35-1.06l-.76.2-.33.06.11,1.26c-.63.37-1.14,1.46-1.17,2.77-.02,1.03.43,2.62.67,3.55.65,2.58,1.04,4.46,3.29,4.39.16.73.51,1.38.73,2.02-.37.9-.87,1.73-.42,3.47.26,1.01,2.25,4.63,2.89,5.29.98,1,1.48.69,2.58.4.22.44.97,1.2,1.08,1.5.06.18-.26,1.52.03,2.63.45,1.71,3.92,5.07,5.27,4.97.86-.06,1.33-.76,1.55-.8.2-.03,1.16.8,1.52.93-.1,1.63.44,2.53.92,3.04.32.34.61.51.66.59,2.32.84,4.43,3.05,6.31-.1l1.6.32.17.48c.81,2.66,4.14,2.72,5.88,2.22,1.02-.3,1.87-1.05,2.3-2.67.14.02,1.34-.28,1.58-.32.13.04.15.08.23.22,1.26,2.1,3.37,1.16,4.94.42,1.29-.66,2.99-1.21,2.81-4.19.32-.12,1.32-.92,1.46-.93.16,0,.81.76,1.6.81,1.16.07,2.28-1.21,3-1.93.75-.75,1.9-1.68,2.26-3.04.32-1.21-.04-2.32.01-2.57.04-.19.92-1.23,1.1-1.56,2.1.52,2.42.33,4.11-2.83.82-1.54,1.72-2.73,1.49-4.76-.09-.8-.31-1-.54-1.57.21-.6.58-1.35.73-2.02,2.25.07,2.64-1.81,3.29-4.39.22-.9.67-2.46.67-3.44,0-1.36-.53-2.5-1.16-2.88l.13-1.26-.37-.06-.97-.21-.14,1.06c-.89.17-1.4.7-1.83,1.39-.44.7-.61,1.96-.84,2.89-.43,1.72-1.26,3.48-.34,5.42.29.61.56.39,0,1.67l-.16.27-.2.62c-1.43-.11-2.22.3-2.97,1.94-.41.9-1.68,2.93-1.89,3.54-.48,1.37-.2,2.14.05,3.34-.37.45-.78.99-1.16,1.47-2.12-1.07-2.87.28-4.12,1.56-1.32,1.36-2.5,1.6-2.35,4.89l-1.43.91c-1.53-1.85-2.25-1.14-4.19-.32-.96.41-3.3.93-3.29,3.33l-.08.15c-.26.37-1.29.36-1.69.42ZM54.78,134.48c-.35-1.16-.68-.63-1.37-.86,0,0,.04.17-.28-.17.61-.53,4.14-.51,4.77,0l-.53.21c-.76.08-.87-.06-1.12.82.07,1.13.56,1.09,1.31,1.04l.54-.1c-.8,1.33-4.65.98-5.1,0,.85.23,1.7.41,1.79-.95ZM48.4,132.56c-.64-.07-1.51-.74-1.76.2-.16.4-.09.52-.09.52.04.94.95.88,1.52,1.18-.64.64-1.96-.15-2.69-.46-.38-.16-1.83-.75-2.01-1.31-.15-.48-.12-.22.05-.31.54.42,1.27.81,1.66.12.46-1.24-.61-1.54-1.26-1.91.59-.64,4.36,1.35,4.57,1.97ZM36.59,125.9c.35-1.04-.44-1.34-.93-2.1.68-.14,1.46.9,2.15,1.62.58.6,1.62,1.18,1.76,2.21-.59-.3-1.07-1.26-1.68-.61-.39.35-.32,1.02,0,1.42.18.22.73.66.92.78-.48.62-1.84-.89-2.38-1.44-.47-.48-1.51-1.37-1.65-2.03-.14-.64-.01-.33.06-.42.06.17.6.76.73.86.47.39.75.19,1.01-.29ZM29.58,116.49c1-.7-.04-1.86-.22-2.56.53.19.7.52.96,1.06l1.48,2.71c.2.34.6.93.4,1.52-.14-.25-.16-.31-.34-.56-.25-.36-.36-.88-.93-.82-.32.04-.33.12-.44.36-.42.97.34,1.62.68,2.26-.76.08-1.52-1.59-1.93-2.37-.27-.52-.49-.94-.77-1.5-.21-.42-.57-1.12-.27-1.59.17.41.83,2.1,1.37,1.47ZM25.4,104.32c.7-.36.25-1.46.11-2.38.44.26.55.61.7,1.34.4,1.88,1.15,3.68.93,4.9-.23-.42-.31-1.02-.51-1.41-.17-.33-.69-.83-.99-.17-.27.2-.31.54-.19,1.09.05.23.24.87.35,1.04,0,0,.01.58-.46-.17-.35-.54-1.01-3.44-1.2-4.27-.09-.38-.23-.98-.15-1.39.1-.48.1-.31.25-.45.01.47.13,1.14.29,1.54.11.29.63.83.88.34Z"/><path class="cls-17" d="M84.97,108.82s.02.03.01.01h0s0-.01,0-.01ZM85.43,105.99c.14.08.21.2.28.36.14.12.23.28.28.46l.02-.06c.2-.72.39-1.52.54-2.18l-.05.04c-.2.15-.45.19-.78.18h-.16s-.1-.13-.1-.13c-.04-.05-.08-.1-.12-.14-.13-.15-.24-.27-.3-.48-.06.27-.12.56-.2.86-.07.27-.14.49-.21.72-.05.17-.1.33-.15.5.09-.08.21-.14.34-.18.27-.08.45-.07.61.03ZM85.14,106.71c-.03-.08-.04-.12-.05-.13,0,0-.02.02-.11.04-.2.06-.32.44-.43.84-.09.3-.17.6-.32.86l-.46.83-.15-.94c-.16-1.03.1-1.89.37-2.78.07-.24.15-.49.2-.69.09-.35.17-.71.23-1.03.2-.97.35-1.73.99-2.09l.59-.34-.11.69c-.03.18-.07.4-.12.61-.07.31-.13.61-.14.82-.02.43.06.52.18.66l.05.05c.12,0,.2-.02.25-.06.07-.05.12-.16.18-.36.06-.2.12-.43.16-.66h0c.04-.22.07-.43.06-.62v-.4s.37.05.37.05h0c.12.02.57.15.56,1.17,0,.33-.39,2.21-.81,3.71-.28,1.01-.6,1.88-.88,2.08-.4.3-.53.37-.72.09h0c-.08-.12-.07-.19-.06-.29h0s-.07-.16-.07-.16l.09-.16s.08-.19.13-.35c.07-.22.15-.47.17-.59.05-.23.07-.41.05-.54-.01-.08-.05-.14-.11-.19l-.08-.06-.04-.09ZM80.62,117.64c.13.11.19.24.27.41.13.3.17.56.16.81.12-.21.23-.43.34-.63l.13-.24c.13-.25.25-.48.38-.72l.21-.41c-.26.17-.54.17-.81-.12-.42-.3-.57-.64-.57-.98-.11.23-.23.46-.34.67-.14.26-.29.51-.43.76-.07.11-.13.23-.2.35.09-.03.2-.04.32-.04h0c.25,0,.41.05.55.16ZM80.28,118.33c-.03-.08-.06-.14-.07-.15-.01,0-.05-.01-.14-.01h0c-.2,0-.3.17-.42.39-.06.11-.12.22-.21.34-.04.06-.08.12-.11.19-.07.12-.13.22-.24.35l-.52.6-.05-.81c-.05-.84.16-1.19.41-1.59.05-.08.1-.17.15-.25.1-.18.21-.37.32-.56.13-.22.26-.45.41-.74.14-.26.24-.46.34-.66.44-.88.77-1.57,1.48-1.84l.61-.23-.18.65c-.07.25-.19.5-.31.75-.26.53-.53,1.09-.04,1.43l.03.02.03.03s.05,0,.09-.04c.28-.27.57-.96.7-1.27h0l.27-.65.34.52c.41.63-.04,1.53-.27,1.98v.03c-.17.32-.3.57-.41.78-.13.25-.25.48-.38.72l-.13.24c-.53,1.02-1.21,2.33-2.09,2.24l-.5-.06.24-.45c.09-.16.19-.31.3-.47.29-.43.62-.9.37-1.47h0ZM72.65,126.39c.23-.03.48.05.75.35.26.24.37.56.37.9,0,.22-.05.44-.13.64.23-.22.45-.44.62-.62l.15-.15c.09-.09.18-.18.29-.29.16-.16.36-.35.53-.54-.15.04-.28.03-.42-.02-.25-.09-.44-.31-.61-.61v-.03s-.02-.03-.02-.03c-.15-.43-.14-.76-.05-1.03l-.22.24c-.14.15-.27.29-.41.44-.15.16-.33.31-.52.47-.11.09-.22.18-.32.28ZM72.95,127.23c-.21-.23-.46,0-.71.23-.18.17-.36.34-.58.45l-.56.29.09-.65c.12-.9.79-1.47,1.38-1.97.17-.15.34-.29.47-.43.12-.13.26-.28.39-.42.65-.71,1.32-1.44,2.05-1.29l.49.1-.28.43c-.16.24-.33.43-.49.61-.31.34-.57.63-.41,1.16.09.15.16.25.23.28.05.02.14-.02.27-.12.07-.06.14-.14.21-.23.06-.07.12-.15.17-.21.08-.08.13-.13.18-.17h0s.03-.03.06-.1l.08-.24.25.02s.12,0,.2.06c.19.11.42.41-.03,1.26-.21.41-.83,1.01-1.28,1.45-.11.11-.21.21-.28.28l-.14.15c-.24.25-.58.6-.93.9-.65.55-1.35.91-1.79.36l-.24-.3.32-.21c.1-.06.31-.22.51-.39.14-.12.27-.23.33-.31.12-.15.19-.36.19-.56,0-.15-.05-.29-.15-.39l-.02-.02ZM64.12,131.82l-.13.05c.32.02.6.19.76.73.14.32.16.65.08.94-.06.22-.16.41-.31.56.19-.06.4-.12.6-.2.56-.2,1.11-.47,1.52-.72-.12.02-.23.02-.34,0-.25-.05-.45-.18-.56-.45-.04-.1-.07-.21-.08-.35-.35-.54-.1-1.02.31-1.4-.17.08-.34.17-.5.25-.18.09-.34.18-.5.25h0c-.36.16-.63.26-.85.34ZM62.48,132.09c.6-.61.87-.71,1.42-.91.21-.08.47-.17.81-.32.14-.06.29-.14.46-.23.71-.37,1.57-.82,2.25-.4l.38.24-.33.31c-.06.05-.14.1-.26.17-.18.1-.46.26-.68.44-.25.2-.44.45-.28.66l.07.09v.11c0,.09.02.15.03.19.01.03.04.05.08.06.09.02.2,0,.32-.04.26-.09.54-.25.71-.38l.09-.07h.11c.06,0,.21,0,.33.12.17.16.26.47-.25,1.06l-.02.02c-.38.42-1.38.98-2.37,1.34-1.04.38-2.11.55-2.55.14-.11-.12-.24-.23-.36-.35l.43-.22c.17-.09.38-.16.58-.22.2-.06.39-.13.51-.2h0c.12-.07.21-.19.24-.34.04-.15.03-.32-.05-.5v-.02s-.02-.02-.02-.02c-.1-.35-.45-.23-.81-.12-.17.06-.35.11-.53.14l-.35.06-.07-.71.11-.11ZM59.24,132.04c.2.26.38.55.48.86h.05c.4-.04.98-.08,1.12-.24l.03-.05c.04-2.26,1.92-2.96,3.08-3.39.15-.06.29-.11.41-.16.24-.1.47-.21.68-.3,1.53-.7,2.32-1.06,3.69.49l1.03-.66c-.08-2.66.71-3.36,1.74-4.28.22-.2.46-.41.71-.67.16-.17.32-.34.48-.51,1.04-1.14,1.9-2.08,3.78-1.23l.16-.21c.24-.31.49-.63.73-.93l-.05-.23c-.23-1.04-.41-1.82.05-3.13.13-.36.55-1.11.99-1.88.36-.64.73-1.29.92-1.69.4-.88.83-1.44,1.36-1.77.48-.3,1.01-.4,1.67-.38l.13-.41.17-.29c.34-.79.31-.84.21-.99h0c-.06-.09-.14-.2-.21-.36-.82-1.72-.37-3.26.06-4.75.09-.31.18-.62.25-.9.06-.24.11-.5.17-.76.17-.81.35-1.67.71-2.24.23-.37.49-.7.82-.97.28-.23.6-.41,1-.51l.16-1.19,1.3.28.68.11-.14,1.38c.31.25.59.66.79,1.16.21.53.35,1.18.35,1.89,0,.89-.33,2.17-.57,3.1l-.11.43-.06.24c-.63,2.52-1.08,4.34-3.3,4.41-.11.38-.27.77-.42,1.14-.07.18-.15.36-.21.52.04.1.09.19.13.28.17.34.31.63.38,1.26.2,1.84-.45,3.01-1.17,4.3-.12.21-.24.43-.36.66-.87,1.63-1.39,2.5-2,2.92-.61.42-1.24.37-2.24.13-.12.17-.27.37-.43.57-.24.32-.49.64-.5.67,0,.01.01.13.04.3.07.51.19,1.35-.06,2.27-.33,1.25-1.25,2.13-1.99,2.84h0c-.13.13-.25.24-.36.35l-.21.21c-.76.78-1.84,1.88-3.04,1.82-.64-.04-1.15-.43-1.48-.68-.09-.07-.02-.13-.09-.12-.02,0-.21.16-.47.34-.23.16-.48.34-.68.45.09,2.77-1.39,3.49-2.68,4.13-.11.06-.22.11-.33.16h-.01c-.81.38-1.76.82-2.7.88-1,.07-1.95-.25-2.66-1.43l-.02-.04-.33.08c-.3.07-.66.15-.92.2-.23.76-.55,1.34-.95,1.76-.44.48-.96.77-1.52.93-1.06.31-2.68.41-4.02-.09-1.01-.38-1.88-1.11-2.26-2.34l-.11-.3-1.2-.24c-1.59,2.48-3.29,1.63-5.11.71-.48-.24-.98-.49-1.46-.67l-.11-.04-.06-.1s-.03-.01-.09-.06h0c-.13-.1-.32-.25-.53-.47-.26-.28-.54-.67-.75-1.22-.18-.49-.3-1.09-.28-1.85-.17-.1-.37-.24-.56-.38-.28-.2-.54-.41-.56-.42-.02,0-.05.05-.13.12-.3.25-.75.63-1.44.68-.76.06-2.02-.77-3.16-1.84-1.15-1.09-2.21-2.45-2.45-3.38-.22-.83-.12-1.74-.07-2.3.02-.19.05-.28.04-.3-.03-.09-.23-.33-.44-.59-.17-.21-.35-.43-.48-.63l-.12.03c-.98.28-1.54.43-2.54-.59-.35-.35-1.03-1.46-1.65-2.61-.62-1.13-1.19-2.31-1.33-2.84-.43-1.67-.06-2.55.31-3.4l.07-.16c-.07-.18-.14-.36-.22-.54-.15-.36-.3-.73-.42-1.13-2.21-.06-2.67-1.89-3.29-4.39l-.06-.25-.11-.41c-.25-.96-.59-2.29-.57-3.24.02-.68.15-1.32.37-1.83.2-.48.47-.86.78-1.11l-.12-1.37.63-.12.83-.22.09.03s.02,0,.03,0c.2,0,.31.01.4.31.04.12.06.33.11.8,1.76.5,2.08,1.86,2.57,3.94.04.16.08.32.15.62.07.29.15.58.24.87.42,1.47.88,3.07.01,4.78-.06.12-.12.2-.17.28-.03.05-.06.09-.09.15.06.34.2.65.34.95.09.19.18.39.25.6.48-.02.87,0,1.23.13.43.15.79.43,1.17.92l.02.02,1.95,3.5c1.1,1.86.97,2.53.62,4.27l-.04.23c.18.22.36.45.54.69h0c.12.15.23.31.36.46.82-.4,1.43-.62,2.46-.01.31.18.53.42.75.67.07.08.15.16.22.24.41.42.8.78,1.15,1.09,1.43,1.31,2.19,2.01,2.14,4.66l1.04.66c1.38-1.54,2.22-1.15,3.66-.48.27.12.55.26.89.39.11.05.24.1.38.15,1.25.48,2.73,1.05,3,3.46l1.1.23c.13-.32.3-.62.5-.89.26-.35.57-.64.91-.84.35-.21,1.5-.33,2.64-.34,1.18-.02,2.4.07,2.77.26.35.18.73.5,1.03.88ZM59.16,133.33c-.06-.3-.22-.6-.43-.86-.24-.31-.55-.56-.82-.71-.27-.14-1.37-.21-2.46-.19-1.05.01-2.07.1-2.32.25-.26.16-.51.39-.72.67-.21.28-.39.61-.5.97l-.09.29-2.14-.44-.02-.26c-.16-2.19-1.48-2.7-2.59-3.13-.13-.05-.26-.1-.39-.15-.33-.13-.63-.28-.92-.41-1.22-.56-1.91-.88-3.08.52l-.18.22-1.83-1.17v-.2c.09-2.5-.6-3.12-1.91-4.33-.34-.32-.73-.67-1.17-1.12h0c-.09-.09-.16-.17-.24-.25-.19-.21-.38-.41-.6-.55-.82-.48-1.33-.23-2.07.14l-.24.12-.17-.2c-.16-.2-.35-.44-.53-.68-.22-.28-.43-.56-.62-.79l-.11-.13.11-.56c.31-1.56.43-2.15-.54-3.78l-1.93-3.46c-.29-.36-.55-.57-.85-.68-.32-.11-.71-.12-1.23-.08l-.27.02-.07-.28c-.06-.25-.18-.5-.29-.75-.17-.38-.35-.77-.41-1.26v-.11s.03-.09.03-.09c.07-.14.12-.23.18-.31.04-.06.08-.13.13-.22h0c.74-1.46.32-2.92-.06-4.26-.09-.31-.17-.61-.24-.89l-.15-.62c-.45-1.91-.74-3.14-2.3-3.49l-.23-.05-.04-.39c-.03-.28-.05-.46-.06-.58l-.64.17h-.04s.1,1.17.1,1.17l-.19.11c-.26.15-.5.48-.69.91-.19.44-.3.98-.32,1.57-.02.84.31,2.12.55,3.04l.17.67c.57,2.3.98,3.94,2.9,3.88h.27s.06.27.06.27c.1.45.27.87.44,1.28.1.24.2.47.28.7l.04.13-.05.12c-.03.08-.08.19-.13.3-.32.74-.65,1.51-.27,2.95.12.47.67,1.59,1.26,2.68.6,1.1,1.24,2.15,1.54,2.46.73.75,1.16.62,1.91.41.11-.03.23-.06.36-.1l.25-.07.12.24c.09.18.32.47.54.74.25.3.48.59.55.79.05.13.03.33,0,.62-.05.5-.14,1.34.05,2.04.21.8,1.18,2.04,2.26,3.05,1.02.96,2.1,1.71,2.67,1.67.48-.04.84-.33,1.07-.53.16-.14.29-.24.44-.27h0c.24-.04.64.24,1.04.53.26.19.52.37.64.42l.23.09-.02.26c-.05.76.06,1.34.22,1.8.16.44.39.76.6.98.17.18.34.31.45.4.06.05.12.09.16.13.51.19.99.43,1.46.67,1.6.8,3.07,1.54,4.39-.66l.12-.2,2.01.4c.08.22.17.46.24.68.31,1,1.02,1.59,1.86,1.91,1.21.45,2.66.36,3.62.08.45-.13.87-.36,1.22-.74.36-.39.65-.93.85-1.69l.08-.29.29.04s.58-.12.99-.21c.23-.05.42-.1.49-.11h.07s.07,0,.07,0c.24.07.29.14.4.34l.02.04c.55.92,1.28,1.17,2.05,1.11.82-.06,1.71-.46,2.46-.81.11-.06.23-.11.34-.17,1.13-.56,2.44-1.2,2.29-3.69l-.02-.26.23-.09c.13-.05.46-.28.76-.49.34-.24.64-.45.8-.46.17-.01.32.1.51.25.27.2.69.53,1.12.55.91.05,1.87-.93,2.54-1.62l.22-.22c.12-.12.24-.24.37-.36h0c.68-.66,1.52-1.46,1.8-2.52.21-.78.1-1.53.04-1.99-.03-.24-.06-.42-.03-.56.04-.18.33-.56.62-.94h0c.22-.29.44-.58.51-.7l.12-.23.24.06c.96.24,1.51.32,1.95.01.49-.34.97-1.14,1.79-2.68.12-.23.25-.45.37-.68.67-1.19,1.26-2.26,1.08-3.88-.06-.51-.17-.75-.31-1.03-.06-.13-.13-.27-.21-.45l-.05-.12.04-.13c.08-.22.17-.45.27-.68.18-.43.36-.89.45-1.29l.06-.28h.27c1.92.07,2.33-1.58,2.9-3.88l.06-.24c.05-.22.08-.32.11-.44.23-.89.55-2.13.55-2.92,0-.61-.12-1.17-.3-1.63-.18-.46-.43-.8-.7-.95l-.18-.11.12-1.16c-.23-.04-.47-.1-.7-.15l-.13.95-.23.05c-.39.08-.69.23-.94.43-.26.21-.47.49-.67.8-.29.47-.46,1.26-.62,2.01-.06.28-.12.54-.18.79-.08.33-.17.63-.26.93-.4,1.37-.8,2.78-.1,4.25.06.12.11.2.16.27.27.39.36.53-.15,1.69v.02s-.17.26-.17.26l-.27.83-.25-.02c-.65-.05-1.14.01-1.55.26-.41.26-.75.72-1.1,1.48-.2.43-.57,1.09-.94,1.75-.42.74-.83,1.47-.94,1.76-.39,1.11-.23,1.81-.02,2.74.02.09.04.2.09.41l.04.17-.11.13c-.26.31-.55.68-.83,1.04l-.5.63-.23-.12c-1.61-.82-2.35-.02-3.25.97-.16.17-.31.34-.49.53-.25.26-.51.49-.75.7-.92.82-1.62,1.43-1.5,3.93v.2s-1.83,1.17-1.83,1.17l-.18-.22c-1.17-1.42-1.82-1.12-3.12-.53-.21.1-.43.2-.69.31-.12.05-.28.11-.44.17-1.01.38-2.65.99-2.64,2.84v.09s-.12.24-.12.24l-.02.02c-.29.42-1.08.48-1.62.53-.12,0-.23.02-.3.03l-.3.04-.06-.31ZM54.61,133.42c.2.12.38.37.54.93l.02.06v.06c-.05.76-.32,1.15-.7,1.32.27.06.58.1.89.12.49.03.98,0,1.42-.1-.08-.02-.16-.05-.23-.09-.33-.18-.53-.54-.57-1.24v-.06s.01-.06.01-.06c.17-.61.3-.84.53-.94-.31-.03-.65-.04-.99-.04-.32,0-.63.01-.92.03ZM54.5,134.5c-.16-.49-.29-.49-.48-.49-.07,0-.14,0-.22,0-.06.2-.26.27-.85-.33l-.26-.26.28-.24s.04-.03.07-.05v-.02s.02,0,.02,0c.43-.27,1.46-.41,2.47-.41,1.11,0,2.25.16,2.63.46l.46.37-1.12.44h-.04c-.13.02-.22.03-.3.03-.3.02-.38.03-.52.49.03.38.11.56.22.62.14.08.4.06.72.03l1.24-.23-.4.66c-.17.28-.43.49-.75.65-.63.31-1.51.42-2.35.37-.84-.05-1.65-.25-2.13-.56-.21-.14-.36-.3-.45-.48l-.3-.66.68.18c.38.1.77.2,1.01.12.19-.05.32-.25.36-.7ZM46.4,132.61c.14-.51.4-.7.72-.72-.32-.19-.69-.38-1.06-.55-.28-.13-.56-.25-.82-.34.35.34.52.82.22,1.61v.03s-.02.02-.02.02c-.23.4-.53.55-.87.55.36.19.75.35.95.44l.06.02c.1.04.24.11.39.18.2.1.43.2.66.29-.18-.18-.31-.44-.33-.84-.02-.13-.02-.36.11-.68ZM48.43,132.87c-.2-.02-.41-.09-.62-.16h0c-.09-.03-.18-.06-.26-.08-.24-.07-.45-.08-.53.19v.03s-.01.01-.01.01c-.06.14-.09.19-.1.21l.03.03v.14c.03.44.41.56.79.68.19.06.38.12.56.21l.42.22-.34.34c-.7.7-1.84.17-2.67-.22-.13-.06-.24-.11-.37-.17l-.06-.02c-.48-.2-1.93-.81-2.14-1.5h0c-.02-.07-.05-.16-.07-.21-.04-.1-.05-.15-.04-.24h0c.05-.36.17-.36.38-.3l.12-.07.17.13c.24.18.52.36.76.42.16.03.3,0,.41-.17.26-.75-.31-1.04-.8-1.29-.12-.06-.23-.12-.32-.17l-.38-.22.3-.32c.07-.08.16-.14.27-.17.48-.17,1.46.11,2.4.55.91.42,1.82.97,2.2,1.36.12.12.21.24.25.36l.17.51-.52-.06ZM37.01,124.96c.09.27.1.6-.05,1.03v.03s-.03.03-.03.03c-.17.31-.36.53-.6.62-.14.05-.28.06-.43.02.18.19.37.37.53.53.11.11.21.2.3.3l.15.15c.17.18.39.4.62.62-.08-.2-.13-.42-.13-.63,0-.34.11-.66.37-.9.28-.3.53-.38.77-.34-.11-.1-.22-.19-.33-.29-.19-.16-.37-.32-.53-.48-.13-.14-.26-.27-.38-.41l-.25-.27ZM36.35,125.73c.17-.53-.1-.82-.41-1.16-.16-.18-.34-.37-.49-.61l-.28-.43.49-.1c.74-.15,1.43.61,2.08,1.32.13.14.25.28.37.4.14.14.31.29.48.44.59.5,1.24,1.06,1.37,1.96l.09.65-.56-.29c-.21-.11-.4-.28-.58-.44-.26-.23-.51-.46-.71-.24l-.02.02c-.1.09-.15.24-.15.39,0,.2.07.4.19.55.06.08.19.19.33.31.2.17.41.33.51.39l.32.2-.24.3c-.44.55-1.14.19-1.79-.36-.35-.3-.69-.65-.93-.9l-.14-.15c-.07-.08-.18-.17-.29-.28-.55-.53-1.32-1.27-1.46-1.92-.13-.62-.03-.77.21-.83h.02s.28-.34.28-.34l.19.55s.09.13.2.25c.17.2.36.41.43.46.13.11.22.14.27.13.07-.03.15-.13.24-.28ZM30.42,115.74c0,.35-.15.69-.57.99-.27.29-.54.29-.81.13l.17.33c.12.24.24.47.38.73l.15.28c.1.2.22.44.35.67-.02-.25.03-.52.16-.82l.03-.07c.14-.32.19-.44.67-.5.17-.02.32,0,.44.03l-.97-1.78ZM29.45,116.18c.5-.35.19-.98-.07-1.51-.12-.24-.23-.46-.29-.67l-.17-.64.6.22c.32.12.54.28.72.5.17.2.29.44.43.73l1.47,2.68.05.08c.24.4.62,1.03.38,1.73l-.24.71-.4-.74c-.09-.17-.13-.23-.27-.45h0c-.07-.1-.12-.19-.17-.28-.12-.21-.23-.42-.46-.39-.11.01-.12.04-.15.1l-.03.06c-.25.57.08,1.05.37,1.48.11.16.21.31.3.47l.25.46-.5.05c-.9.09-1.64-1.35-2.11-2.27l-.14-.28c-.14-.26-.26-.49-.38-.74-.12-.24-.25-.48-.39-.77l-.02-.04c-.24-.49-.63-1.28-.23-1.89l.34-.51.27.65h0c.13.31.41,1,.7,1.26.04.04.08.06.09.04l.03-.03.03-.02ZM26.11,104.04c-.07.2-.2.38-.42.51-.05.07-.1.13-.16.17-.17.12-.35.14-.53.08-.14-.04-.26-.13-.38-.23l-.03-.02c.11.48.28,1.18.45,1.86l.1.39c.05-.18.14-.33.28-.46.06-.12.13-.21.21-.28.17-.15.35-.19.54-.16.16.03.3.1.42.21.02.02.05.04.07.06-.08-.34-.18-.7-.28-1.07-.09-.34-.19-.7-.28-1.06ZM25.31,103.99c.32-.16.18-.78.05-1.4-.04-.21-.09-.41-.12-.61l-.11-.71.6.36c.28.17.46.36.59.64.12.24.19.53.27.92.12.59.28,1.17.44,1.74.34,1.25.66,2.39.49,3.3l-.17.91-.44-.81c-.14-.25-.22-.55-.31-.83-.06-.22-.13-.44-.2-.59-.04-.08-.11-.17-.2-.24-.04-.04-.08-.06-.11-.07,0,0,0,0,0,0-.02.02-.05.06-.08.12l-.04.09-.07.05c-.06.04-.09.1-.11.18-.02.13,0,.31.05.54.03.13.1.38.17.59.05.15.1.29.13.34l.05.08v.1h0s0,.35-.21.49c-.2.14-.49.12-.86-.47-.2-.31-.46-1.2-.7-2.13-.23-.9-.45-1.84-.54-2.25v-.06c-.11-.41-.25-1.02-.15-1.49.11-.52.17-.54.34-.63h0s.53-.49.53-.49l.02.74c0,.22.04.49.09.75.05.25.11.49.18.67.03.07.09.16.18.24.04.03.07.06.11.08l.06-.1.09-.05Z"/><path class="cls-5" d="M24.12,57.13c-17.19-.74-16.08,34.04-4.58,36.68,2.07-4.88,3.45-6.21,2.95-4.55-3.89,12.95-1.73,19.89,19.12,31.92l-1.82-4.99c7.57,5.83,12.49,9.34,17.19,10.02v.13c.18-.02.35-.04.53-.06.18.02.35.03.52.04v-.13c4.66-.88,9.42-4.62,16.73-10.77l-1.6,5.07c20.29-12.94,22.14-19.97,17.69-32.73-.57-1.64.87-.37,3.15,4.42,11.53-3.19,10.93-38.91-6.92-36.36-3.87.22-4.79-1.9-6.4-4.21-13.67-19.64-45.44-18.82-53.84,2.87-.64,1.65-2.23,2.68-2.71,2.66"/><path d="M13.23,63.22c2.35-4.35,6.12-7.27,11.48-7.04.09,0,.43-.25.86-.67.38-.36.74-.83.96-1.38,2.15-5.29,5.62-9.39,9.84-12.29,4.3-2.95,9.39-4.67,14.66-5.15,5.26-.48,10.71.27,15.76,2.24,5.98,2.33,11.41,6.38,15.3,12.12.11.16.3.46.5.76,1.13,1.74,2.07,3.19,4.95,3.04,5.67-.79,9.66,1.94,12.16,6.29,1.37,2.38,2.28,5.25,2.75,8.28.47,3,.52,6.16.18,9.17-.8,7.01-3.77,13.16-8.56,14.48l-.77.21-.16-.35c.77,4.16.49,7.82-1.4,11.52-3.84,7.52-13.99,13.79-21.02,18.22l1.49-4.46c-2.64,2.15-4.95,3.94-7.04,5.34-7.44,4.95-10.08,4.64-16.97.37-2.11-1.31-4.43-2.99-7.07-5.02l1.52,4.39c-7.05-4.11-17.24-9.94-21.12-17.29-1.92-3.63-2.21-7.27-1.47-11.47l-.16.37-.77-.18c-4.5-1.04-7.43-6.4-8.46-12.82-.5-3.11-.57-6.47-.16-9.7.41-3.25,1.3-6.38,2.72-8.99M24.59,58.08c-4.5-.19-7.68,2.3-9.69,6.02-1.29,2.39-2.11,5.28-2.49,8.31-.39,3.05-.32,6.23.15,9.16.86,5.32,3.04,9.8,6.31,11.07,1.04-2.26,1.91-3.68,2.43-4.32.23-.28.45-.47.64-.57h0c.81-.43,1.33-.19,1.51.69.05.26.02.62-.13,1.08-1.99,6.23-2.51,11-.09,15.58,2.29,4.33,7.2,8.62,15.93,13.91l-1.93-5.58,2.56,2c16.06,12.55,17.23,12.99,33.79-.75l2.54-2.11-1.9,5.67c8.7-5.68,13.58-10.18,15.84-14.61,2.39-4.69,1.84-9.43-.18-15.57-.15-.45-.19-.81-.14-1.07.18-.89.69-1.15,1.51-.76.2.1.42.28.65.54.53.62,1.4,2,2.46,4.21,3.51-1.53,5.73-6.69,6.4-12.57.32-2.83.27-5.82-.18-8.66-.44-2.81-1.28-5.46-2.53-7.64-2.14-3.72-5.53-6.05-10.32-5.36h-.08c-3.99.23-5.2-1.63-6.66-3.87-.12-.19-.25-.39-.49-.73-3.67-5.42-8.79-9.24-14.43-11.44-4.78-1.86-9.93-2.57-14.9-2.12-4.95.45-9.72,2.05-13.74,4.82-3.93,2.7-7.15,6.5-9.14,11.41-.34.83-.87,1.53-1.41,2.05-.83.79-1.8,1.23-2.28,1.21h0Z"/><path class="cls-2" d="M58.76,57.41c3.97-.63,7.82-4.34,13.47-2.06,10.34,4.17,6.76,25.71,1.08,28.48-1.28,1.18-3.31.03-6.65-.39,13.92,10.11,21.85,17.68-2.79,35.89.52-1.36,1.2-2.61,1.48-3.89-2.57,1.99-5.21,3.97-8.28,5.12-2.96.56-7.58-3.84-9.83-4.44l1.69,3.52c-27.83-17.51-15.17-26.6-4.86-35.66l-4.41.96-.83.3c-8.04-7.46-12.17-24.37-1.06-29.12,4.28-1.83,9.55-.12,13.27,1.72-.26-1.1-.3-1.24-.99-2.09,1.35.33,4.08,1.86,5.01,2.73l4.88-2.96c-.57.81-.5.96-1.18,1.89"/><path class="cls-8" d="M35.61,112.58c-.71-1.59-4.77-7.39-5.87-11.28-2.06-7.32,11.13-16.28-.13-8.47.35-5.53-.63-7.82-1.96-12.54-2.94,10.06-7.22,17.09-.98,24.54,1.88,2.24,6.77,6.95,8.93,7.74"/><path class="cls-2" d="M24.34,82.56c-.82-.35-1.97,1.75-5.75-.11-1.15-7.63,9.71-8.23-.39-13.31,7.42-3.38,8.13,7.66,10.2-2.23-22.41-12.19-14.53,33.38-4.05,15.66"/><path class="cls-8" d="M14.47,70.84c1.29-2.53,2.95-5.65,7.11-6.07,3.4-.34,3.98,2.97,6.7,2.07-.2-10.18-12.09-3.95-13.8,4"/><path class="cls-8" d="M54.71,95.3c.04.78-.37,1.29-.12,1.87.26.63.04-.22.36.55.36.86-.15,1.31.61,2.16,1.55-1.33,1.12-3.78-.13-5.55l-.72.97Z"/><path class="cls-8" d="M48.1,89.18l.65-.51c-.53,1.51-1.02,1.51-.59,3.1.85-.07.58-.7.86-1.71.97-3.49,3.66-3.11,4.37-3.63-.93-1.35-2.48-.44-3.5.17-1.2.72-1.78,1.13-2.45,2.37.31.55-.2.15.65.2"/><path class="cls-8" d="M58.13,85.67l-.04-.1-.35.97c1.92.21,2.58.33,3.63,1.58,1.48,1.77.91,3.34,1.53,3.2,1.3-.28-.18-2.09-.38-2.89l1.31.51c-.51-1.74-3.19-3.54-5.71-3.29"/><path class="cls-8" d="M49.95,91.88c1.81-.55,3.21-1.3,2.45,1.61,4.44-.11,1.21-5.15-.16-6.03-1.89.78-2.35,2.61-2.29,4.42"/><path class="cls-8" d="M59.04,93.38c-1.1-3.43,1.04-1.89,2.39-1.79.18-2.01-.43-3.1-2.39-4.32-.32.2-5.35,5.82,0,6.11"/><path class="cls-8" d="M27.96,61.17c-.37,1.61-.96,8.46-2.2,11.97-2.33,6.6-13.27,4.16-3.86,6.12-2.74,3.71-3.3,5.99-4.8,10.25,6.18-5.21,11.63-7.35,11.87-16.84.07-2.85-.26-9.49-1.01-11.5"/><path class="cls-8" d="M56.44,73.05c.65.4.85-8.36-.34-8.15-.18.03-.35.18-.43.6-.39,2.23-.69,6.65.77,7.54"/><path class="cls-8" d="M68.37,98.02c3.51,9.66-15.87,8.66-19.62,8.38,14.56,4.86,25.15-1.28,24-5.66-.33-1.23-2.11-1.95-4.37-2.72"/><path class="cls-8" d="M45.86,108.68c-1.14-4.75-.44-4.93,8.17-5.39-8.56-3.61-15.34,2.22-8.17,5.39"/><path class="cls-8" d="M65.07,101.58c5.11-3.22,6.62-2.95,9.62,1.39.67-5.82-6.39-8.21-9.62-1.39"/><path class="cls-10" d="M26.05,60.43c-11.99-8.08-14.32-12.81-.78-19.83-7.5-21.5,3.46-25.75,20.75-32.04.65-.24,4.67-1.36,4.74-1.73.88-4.58,6.79-4.11,8.26-.55,18.08,5.17,33.12,9.8,26.93,32.76,12.82,6.79,11.64,11.28.07,19.91-14.3-12.14-48.48-11.37-59.98,1.47Z"/><path class="cls-14" d="M26.05,60.43c-11.99-8.08-14.32-12.81-.78-19.83-7.5-21.5,3.46-25.75,20.75-32.04.65-.24,4.67-1.36,4.74-1.73.88-4.58,6.79-4.11,8.26-.55,18.08,5.17,33.12,9.8,26.93,32.76,12.82,6.79,11.64,11.28.07,19.91-14.3-12.14-48.48-11.37-59.98,1.47Z"/><path class="cls-9" d="M27.14,28.16c.26,2.11,2.75,10.58,2.69,11.05.24-.14.14-.59.12-1.13-.06-1.19-.34-2.49-.41-3.54l-.75-4.17c.05-1.15-1.75-5.67-.61-8.57.71-1.82,5.31-6.55,7.51-6.72-.32.43-.99.78-1.4,1.15-1.11,1.01-4.07,4.54-4.19,6.1.45-.78,1.38-1.77,2.08-2.39l-.81,1.67c-.66,1.63-1.11,5.67-.6,6.62.13-.66.73-3.8,1.33-4.02-.65.81-.83,5.68-.09,6.97.03-1.11.27-3.9.81-4.67.09.13.07.41.07.62-.28,7.7,5.68,8.95,11.98,9l15.76-.48c.85-.02,1.75-.05,2.56-.01.64.03,1.99.09,2.57.02,1.01-.06,1.58-.01,2.54-.26,3.37-.9,6.89-1.56,8.55-5.09.81-1.71.33-4.44.54-4.82.58.4.92,3.88,1.03,4.68.58-1.95.05-4.22-.07-6.25.75.27.84,2.7,1.21,3.2.29-.6-.11-3.9-.26-4.57-.25-1.16-1.31-3.01-1.38-3.55.38.19,1.73,1.73,2,2.13.07-.19-.86-1.76-1.05-2.09-.58-1-1.4-1.96-2.23-2.75-1.22-1.14-.97-.79-2.04-1.65l-.7-.49c.12-.08-.15-.07.2-.05,1.81.07,6.81,4.55,7.68,6.38,1.95,2.99.08,13.81-1.01,17.23.04.37-.07.21.15.28-.1-.67.28-1.42.46-2.05.93-3.27,1.8-7.64,1.86-11.03.13-6.69-2.55-8.26-7.53-10.89-4.2-2.22-15.56-6.19-20.52-6.58-3.53-.28-16.87,5.02-20.51,7.15-1.18.69-2.38,1.35-3.55,1.99-3.99,2.16-4.5,7.4-3.98,11.56M54,8.4c2.7-.33,6.36.75,8.61,1.48,2.48.8,9.35,3.71,9.21,3.72-2.24.16-11.45-4-17.15-3.7-7.54.4-14.83,4.27-17.02,4.57,2.7-2.31,12.94-5.66,16.35-6.07Z"/><path class="cls-7" d="M17.83,51.74c.19-.94.18-1.37.85-2.34,9.09-13.27,45.76-11.38,59.1-8.87,4.53.85,9.86,2.6,13.22,5.6,1.65,1.47,1.89,1.96,2.43,3.89.14-16.92-50.05-13.86-64.14-8.64-3.23,1.2-8.33,3.13-10.33,6.08-.95,1.39-1.17,2.2-1.12,4.28"/><path class="cls-9" d="M26.27,59.81c1.37-1.64,2.9-3.44,7.87-5.96-1.58-.94-7.4,3.57-8.3,5.25-.25-.09-1.48-.88-1.73-1.07-1.5-1.12-3.47-2.88-3.98-4.71-.55-1.97,1.37-4.5,2.78-5.71.36-.31,1.26-1.06,1.78-1.19-1.02,1.65-3.93,3.95-3.42,6.63-.29-6.03,10.9-9.61,15.7-10.76,11.45-2.74,38.56-4.56,48.06,2.95,2.54,2,3.82,2.91,5.05,6.14.26-2.82-2.7-4.74-3.72-6.37,1.57.23,4.2,3.32,4.72,4.98.86,2.73-3.2,6.81-5.33,7.69-1.19-1.63-5.69-4.86-8.42-4.83,0,0,4.59,1.54,7.14,4.79.08.1.76.81.88.88,2.44-1.65,6.91-4.29,7.01-7.67-3.94-16.06-56.52-13.35-69.54-4.43-1.23.84-2.65,2.3-3.37,3.76-2.02,4.1,3.96,8.88,6.83,9.65"/><path class="cls-10" d="M65.75,35.65c.22.12.62.09.88.09,2.19.17,4.27.49,6.42.69,1.03.1,6.62,1.31,6.73,1.3,2.88-4.85,4.48-20.72-5.7-23.63-.17,0-.19-.01-.19,0,0,0,.05.02-.01.06.14.1.28.19.42.29,1.75,1.24,3.47,2.71,4.55,4.59.19.33,1.13,1.9,1.05,2.09-.27-.4-1.61-1.94-2-2.13.62,1.53,1.75,5.29,1.64,8.11-.06-.08,0,.06-.07-.14-.25-.67-.5-2.83-1.14-3.06.11,2.03.65,4.29.07,6.25-.11-.81-.45-4.28-1.03-4.68-.21.37.27,3.11-.54,4.82-1.67,3.54-5.18,4.19-8.55,5.09-.96.25-1.54.2-2.54.26"/><path class="cls-10" d="M32.66,16.92c-5.32,5.66-4.21,14.76-1.75,21.93l3.32-.85c2.49-.69,7.04-1.55,9.69-1.73l.94-.15c-14.31-.8-9.59-6.06-12.06-9.62-.54.76-.78,3.56-.81,4.67-.74-1.29-.55-6.16.09-6.97-.65.24-1.21,3.4-1.33,4.02-.51-.94-.07-4.99.6-6.62l.81-1.67-.58.52c-.31.41-1.12,1.22-1.5,1.87l.02-.21s.01-.03.02-.05l.38-.89s.02-.03.03-.04c0-.01.02-.03.03-.04.18-.29.27-.56.47-.85,1.07-1.65,1.79-2.66,3.26-4,.41-.37,1.08-.71,1.4-1.15-1.08.08-2.34,1.09-3.02,1.84"/><path class="cls-6" d="M17.83,51.74c-.05-2.08.17-2.89,1.12-4.28,2.01-2.95,7.1-4.88,10.33-6.08,6.15-2.28,11.5-2.88,17.59-4.22-6.71.59-12.62,1.55-19.05,3.91-3.04,1.11-8.61,3.96-10.19,7.05-.66,1.28-.8,3.44.18,4.4v-.77Z"/><path class="cls-6" d="M93.42,50.02l.06.77c.9-1.15.74-2.87.02-4.3-3.89-7.73-20.66-8.8-28.34-9.17,3.82,1,27.8.78,28.26,12.7"/><path class="cls-9" d="M36.34,51.36c.03.23,1.75-.4,2.02-.47,5.13-1.51,10.88-2.25,16.13-2.38,5.66-.14,8.94-.18,14.45.81.75.14,1.43.32,2.2.42.34.05.71.15,1.04.25l.85.18c.32-.03.14.06.28-.14-.3.02-.77-.15-1.08-.27-.64-.11-1.33-.38-1.99-.53-.66-.15-1.3-.28-1.94-.44-3.39-.86-9.06-1.36-12.45-1.42-4.09-.07-8.48.87-12.43,1.81-.79.21-7.01,2.19-7.08,2.18"/><path class="cls-9" d="M37.68,49.45c.55-.04,1.43-.33,2.08-.49,10.55-2.56,20.83-2.82,31.44-.72.69.14,1.39.31,2.02.36-9.23-3.19-22.44-3.45-31.63-.41-.89.28-3.1.78-3.8,1.15-.02.02-.09.09-.11.1"/><path class="cls-6" d="M38.6,13.89c-.23.25-.74.41-.95.59,2.2-.3,9.49-4.17,17.02-4.57,5.7-.31,14.91,3.86,17.15,3.7.14-.01.06,0,.15-.04-6.24-1.76-11.02-4.51-18.06-4.04-5.13.34-10.56,2.42-15.3,4.37"/><path class="cls-9" d="M40.62,47.16c-.17.11-1.74.59-1.86.53.1.19,6.65-1.25,7.47-1.36,4.35-.56,12.39-1.01,16.69-.6,1.97.19,3.97.37,5.91.7.55.09,1.4.32,1.92.29-8.37-3.66-23.97-1.14-30.14.44"/><path class="cls-7" d="M26.2,21c-3.34,3.62-2.52,14.45,0,19.53.47-.13.4-.08.18-1.01-1.7-6.09-2.81-11.74-.18-18.52"/><path class="cls-1" d="M84.89,21.35c-.27-.53-.79-1.42-1.19-1.73l.95,2.05c1.03,2.44,1.25,5.09,1.1,7.79-.16,2.73-.86,6.02-1.4,8.8-.11.58-.35.87.32.95.87-5.98,3.08-12.12.21-17.85Z"/><path class="cls-15" d="M84.89,21.35c-.27-.53-.79-1.42-1.19-1.73l.95,2.05c1.03,2.44,1.25,5.09,1.1,7.79-.16,2.73-.86,6.02-1.4,8.8-.11.58-.35.87.32.95.87-5.98,3.08-12.12.21-17.85Z"/><path class="cls-9" d="M51.9,6.73c.68.32,1.41-.76,4.19-.28.42.07.94.21,1.38.19-.58-1.5-5.07-1.33-5.58.09"/><path class="cls-6" d="M80.9,38c.46.47.63-.06.71-.46.12-1.27.36-2.61.56-3.84.17-1.06.52-2.8.53-3.78-.45,1.88-.75,3.95-1.34,6.03-.18.63-.56,1.38-.46,2.05"/><path class="cls-6" d="M27.89,32.37c.1.93.68,7.42,1.94,6.84.09-.62-.26-1.22-.44-1.76-.38-1.12-1.42-5.27-1.49-5.08"/><polygon class="cls-12" points="58.16 18 60.49 17.95 60.53 19.84 63.28 18.13 63.22 15.04 55.32 15.21 55.69 32.39 63.59 32.21 63.53 29.39 60.69 27.52 60.73 29.42 58.41 29.47 58.16 18"/><path class="cls-12" d="M46.6,15.38c1.97-.04,3.95-.09,5.94-.13l1.98,1.12c.11,4.95.21,9.89.32,14.84l-1.93,1.21c-1.99.05-3.96.09-5.94.13l-.27-12.38-.04-1.94-.06-2.85Z"/><polygon class="cls-16" points="52.01 29.59 51.77 18.12 49.44 18.17 49.69 29.64 52.01 29.59"/><path class="cls-8" d="M70.16,95.07c4.59.31,6.71,1.34,5.52,9.87,5.18-7.71.32-14.31-5.52-9.87"/><path class="cls-8" d="M18.93,71.78c1.33.71,1.86,2.31,1.19,3.56-.67,1.26-2.29,1.7-3.62.99-1.33-.71-1.86-2.31-1.19-3.56.67-1.26,2.29-1.7,3.62-.99"/><path class="cls-11" d="M10.48,72.52c-3.54.26-4.79,3.68-2.41,6.04,1.07,1.07,2.62,1.78,4.1,1.54,1.83-.29,3.19-2.32,4.22-6.43,1.9-.2,1.54-.53,2.8.92-1.3,5.19-3.48,7.72-6.21,8.16-2.55.4-5.13-.74-6.88-2.48-4.3-4.27-2.96-11.24,4.87-10.71l-.49,2.97Z"/><path class="cls-17" d="M10.34,70.28c-.31-.01-.6,0-.89,0-2.43.16-4.05,1.47-4.89,3.83-.33.93-.3,1.93,0,2.9,1.52,4.83,8.33,7.55,11.74,3.06.93-1.22,1.71-2.93,2.31-5.21-.66-1.4-.38-1.15-1.89-.62-.5,1.88-1.08,3.31-1.75,4.33-3.67,4.61-10.03-.61-8.12-3.92.45-.79,1.49-1.76,2.68-2.06.81-.21.41.44.8-2.32M10.2,79.44c.6.23,1.24.32,1.86.22,2.14-.34,2.66-3.84,3.78-5.75,1.43-2.44,4.11-.37,3.81.82-1.2,4.8-4.07,10.52-10.39,8.24-8.97-3.23-6.75-14.82,1.71-13.41l-.58,3.88c-3.77.27-3.92,4.6-.19,6Z"/><path class="cls-2" d="M88.57,80.85c.82-.35,1.97,1.75,5.75-.11,1.15-7.63-9.71-8.23.39-13.31-7.42-3.38-8.13,7.66-10.2-2.23,22.41-12.19,14.53,33.38,4.05,15.66"/><path class="cls-8" d="M98.44,69.13c-1.29-2.53-2.95-5.65-7.11-6.07-3.4-.34-3.98,2.97-6.7,2.07.2-10.18,12.09-3.95,13.8,4"/><path class="cls-8" d="M84.95,59.46c.37,1.61.96,8.46,2.2,11.97,2.33,6.6,13.27,4.16,3.86,6.12,2.74,3.71,3.3,5.99,4.8,10.25-6.18-5.21-11.63-7.35-11.87-16.84-.07-2.85.26-9.49,1.01-11.5"/><path class="cls-8" d="M76.52,112.58c.71-1.59,4.77-7.39,5.87-11.28,2.06-7.32-11.13-16.28.13-8.47-.35-5.53.63-7.82,1.96-12.54,2.94,10.06,7.22,17.09.98,24.54-1.88,2.24-6.77,6.95-8.93,7.74"/><path class="cls-8" d="M57.56,74.22c.86.7.5.09,1.14-2.95.2-.95.43-1.88.66-2.72.59-2.08,1.45-3.97,1.55-4.34-.32-.11-1.32.65-1.63.99-1.05,1.14-4.21,7-1.73,9.02"/><path class="cls-8" d="M54.34,72.33c-.86.7-.5.09-1.14-2.95-.2-.95-.43-1.88-.66-2.72-.59-2.08-1.45-3.97-1.55-4.34.32-.11,1.32.65,1.63.99,1.05,1.14,4.21,7,1.73,9.02"/><path class="cls-10" d="M53.8,73.96c.34-.57,1.1-.92,2-1.11.9.18,1.66.54,2,1.11,2.56,4.27,3.9,8.54,6.27,12.34,1.76,2.82,1.51,2.71,4.79,3.02,6.07.58,12.82,1.96,15.95-3.65,2.71-4.86,7.17-19.04-1.9-19.77-6.88-.55-13.37-.43-20.26.42-2.82.35-2.67,3.96-4.98,4.81-.28.1-1.01.18-1.87.23-.86-.05-1.58-.13-1.87-.23-2.31-.85-2.16-4.47-4.98-4.81-6.88-.85-13.37-.97-20.26-.42-9.59.77-5.08,22.55,3.27,23.56,3.11.38,7.67.14,10.78-.15,3.28-.31,3.02-.2,4.79-3.02,2.38-3.8,3.71-8.07,6.27-12.34"/><path class="cls-12" d="M54.56,73.52c-.13.07-.24.15-.34.24-.09.08-.16.16-.21.25-.63,1.04-1.18,2.09-1.69,3.13-.52,1.05-.99,2.08-1.46,3.1-.49,1.07-.97,2.12-1.47,3.12-.51,1.02-1.05,2.03-1.66,3l-.27.44c-.36.58-.63,1.02-.89,1.36-.27.36-.52.62-.83.82-.32.2-.67.32-1.14.41-.44.08-.98.13-1.7.2l-.33.03c-.94.09-2.01.17-3.12.24-.97.05-1.98.09-2.99.11-.89.01-1.78,0-2.61-.03-.77-.03-1.5-.08-2.16-.16-1.71-.21-3.25-1.2-4.57-2.68-1.43-1.62-2.59-3.81-3.38-6.19-.33-1-.6-2.03-.79-3.07-.19-1.03-.31-2.06-.36-3.07-.04-1.04,0-2.04.13-2.99.13-.92.34-1.78.64-2.56.45-1.16,1.11-2.14,2-2.84.83-.66,1.84-1.07,3.07-1.17,1.71-.14,3.42-.23,5.12-.29,1.69-.05,3.37-.06,5.05-.03,1.69.03,3.37.11,5.06.23,1.7.12,3.4.29,5.12.5.9.11,1.53.5,2.04,1.02.48.5.83,1.12,1.18,1.73h0s0,0,0,0c.5.88.99,1.76,1.87,2.08.04.02.11.03.19.05.1.02.22.04.36.05.16.02.33.04.52.05.21.02.42.03.62.04.2-.01.41-.03.62-.04.19-.02.36-.03.52-.05.14-.02.27-.04.36-.05.08-.02.15-.03.19-.05.88-.32,1.37-1.2,1.87-2.08h0s0,0,0,0c.35-.61.7-1.23,1.18-1.73.51-.52,1.14-.91,2.04-1.02,1.72-.21,3.43-.38,5.12-.5,1.68-.12,3.36-.2,5.05-.23,1.68-.03,3.36-.02,5.05.03,1.71.05,3.41.15,5.12.29.53.04,1.03.13,1.48.26.47.13.9.31,1.29.53.65.36,1.18.83,1.61,1.39.45.58.79,1.26,1.03,2.01.22.68.35,1.42.42,2.2.07.83.06,1.7-.01,2.58-.15,1.92-.6,3.94-1.17,5.81-.7,2.3-1.59,4.38-2.35,5.73-2.97,5.34-8.89,4.71-14.61,4.09h-.04c-.63-.07-1.25-.14-1.79-.19l-.33-.03c-.72-.07-1.27-.12-1.7-.2-.47-.09-.82-.2-1.14-.41-.31-.2-.56-.45-.83-.82-.25-.34-.53-.78-.89-1.36l-.27-.44c-.61-.98-1.15-1.98-1.66-3-.49-.99-.98-2.05-1.47-3.12-.47-1.02-.94-2.05-1.46-3.1-.51-1.04-1.07-2.09-1.69-3.13-.05-.09-.12-.17-.21-.25-.1-.09-.21-.17-.34-.24-.14-.08-.3-.15-.48-.21-.17-.06-.34-.11-.53-.15-.19.04-.37.09-.53.15-.17.06-.34.13-.48.21h0ZM53.15,73.5c.1-.17.24-.33.39-.47.16-.14.34-.27.54-.38.2-.11.41-.2.65-.28.24-.08.49-.15.75-.2.02,0,.08-.02.1-.02.02,0,.08.02.1.02.26.05.51.12.75.2h0c.23.08.44.17.64.28h0c.2.11.38.24.54.38.15.14.29.3.39.47.64,1.07,1.21,2.14,1.73,3.19.52,1.04,1,2.1,1.47,3.13.47,1.03.94,2.05,1.45,3.08.5,1,1.03,1.98,1.62,2.93l.28.44c.66,1.06.99,1.6,1.4,1.85.42.27,1.07.33,2.38.45l.35.03c.64.06,1.21.12,1.78.18h.05c5.39.59,10.98,1.18,13.63-3.57.73-1.31,1.59-3.31,2.27-5.54.55-1.8.98-3.75,1.13-5.6.07-.83.08-1.65.01-2.41-.06-.71-.18-1.38-.37-1.98-.2-.63-.48-1.21-.86-1.69-.35-.45-.78-.84-1.31-1.13-.32-.18-.68-.33-1.08-.44-.39-.11-.82-.18-1.28-.22-1.73-.14-3.42-.23-5.08-.29-1.68-.05-3.34-.06-5-.03-1.65.03-3.31.11-5,.23-1.67.12-3.36.29-5.08.5-.64.08-1.1.37-1.47.76-.39.41-.7.95-1,1.49h0c-.59,1.05-1.18,2.09-2.4,2.54-.09.03-.2.06-.33.09-.13.03-.28.05-.45.07-.17.02-.35.04-.55.06-.19.02-.42.03-.68.05-.02,0-.03,0-.05,0-.26-.01-.48-.03-.68-.05-.2-.02-.39-.04-.55-.06-.17-.02-.32-.04-.45-.07-.13-.03-.24-.06-.33-.09-1.22-.45-1.81-1.49-2.4-2.53h0c-.3-.54-.61-1.08-1-1.5-.37-.39-.83-.68-1.47-.76-1.72-.21-3.41-.38-5.08-.5-1.69-.12-3.35-.2-5-.23-1.66-.03-3.32-.02-5,.03-1.66.05-3.35.15-5.08.29-1.02.08-1.85.42-2.53.96-.74.59-1.29,1.42-1.68,2.41-.28.71-.47,1.5-.59,2.34-.12.89-.16,1.83-.12,2.81.04.95.16,1.94.34,2.92.18.99.44,1.98.76,2.94.74,2.24,1.82,4.3,3.14,5.8,1.16,1.32,2.51,2.21,3.97,2.39.65.08,1.35.13,2.09.16.82.03,1.68.04,2.55.03.98-.01,1.98-.05,2.95-.11,1.11-.06,2.16-.15,3.08-.23l.33-.03c.67-.06,1.18-.11,1.58-.18.36-.06.62-.14.82-.27.2-.13.38-.31.59-.6.22-.3.48-.72.82-1.26l.27-.44c.59-.95,1.12-1.93,1.62-2.93.51-1.03.98-2.05,1.45-3.08.48-1.04.96-2.09,1.47-3.13.52-1.06,1.09-2.12,1.73-3.19Z"/><path class="cls-16" d="M54.41,73.34c.07-.05.14-.09.21-.13l.24-.13h0s0,0,0,0c.08-.04.18-.07.27-.11.09-.03.18-.06.27-.09.09-.02.19-.05.29-.07h.06s.06,0,.06,0c.11.02.2.05.29.07.09.03.18.05.27.09.1.03.19.07.27.11h0c.08.04.17.08.25.12.07.04.14.08.21.13.07.05.13.1.19.15.05.05.1.1.15.15.04.05.08.11.12.16.32.53.61,1.05.89,1.58.28.52.55,1.05.81,1.57.26.52.51,1.04.75,1.57.25.53.48,1.03.71,1.54v.02c.49,1.05.96,2.08,1.46,3.09.26.51.52,1.02.79,1.51.27.5.56.99.86,1.47l.28.44c.36.58.63,1.01.87,1.34h0c.13.17.25.32.37.44.12.12.25.22.38.31.14.09.29.16.46.22.17.06.36.11.58.15.21.04.45.07.72.1.31.03.61.06.96.1l.33.03c.56.05,1.15.12,1.75.18h.08c2.84.31,5.73.62,8.25.2,2.49-.42,4.64-1.56,6.08-4.14.39-.7.82-1.6,1.24-2.62.38-.93.76-1.97,1.09-3.06.3-.97.56-1.98.76-2.99.19-.92.32-1.85.4-2.76.04-.45.06-.9.06-1.32,0-.41-.01-.81-.05-1.22-.03-.39-.08-.76-.15-1.12-.07-.35-.15-.69-.25-1.01-.12-.37-.26-.71-.42-1.04-.16-.31-.35-.61-.56-.88-.21-.27-.44-.51-.7-.73-.25-.22-.53-.41-.83-.58-.19-.11-.38-.2-.59-.28-.2-.08-.41-.15-.64-.22-.22-.06-.45-.11-.69-.16-.24-.04-.48-.07-.74-.09-.87-.07-1.72-.13-2.56-.17-.86-.05-1.71-.09-2.55-.11-.85-.03-1.69-.04-2.52-.05-.84,0-1.68,0-2.52.02-.84.02-1.68.05-2.52.08-.83.04-1.67.09-2.52.15-.86.06-1.71.13-2.55.22-.83.08-1.68.18-2.56.28-.41.05-.76.16-1.07.33-.31.16-.57.37-.8.61-.23.24-.43.5-.61.78-.18.27-.34.55-.49.83h0s-.05.08-.05.08l-.07.12c-.5.88-1.02,1.73-1.94,2.07-.03.01-.07.02-.11.03-.04,0-.08.02-.13.03-.06.01-.12.02-.17.03l-.21.03c-.18.02-.35.04-.53.05l-.31.02c-.3.02-.35.02-.65,0l-.31-.02-.28-.03-.26-.03-.21-.03c-.06,0-.12-.02-.17-.03-.05,0-.09-.02-.13-.03-.04-.01-.08-.02-.11-.03-.49-.18-.87-.51-1.2-.92-.25-.32-.47-.68-.68-1.04-.02-.04-.17-.28-.17-.3-.16-.29-.32-.57-.5-.85-.18-.28-.38-.55-.61-.78-.23-.24-.5-.45-.8-.61-.3-.16-.66-.27-1.07-.33-.88-.11-1.74-.2-2.56-.28-.84-.08-1.68-.15-2.55-.22-.85-.06-1.69-.11-2.52-.15-.85-.04-1.69-.07-2.52-.08-.84-.02-1.68-.02-2.52-.02-.84,0-1.68.02-2.52.05-.84.03-1.69.06-2.55.11-.84.05-1.69.11-2.56.17-.58.05-1.1.16-1.58.35-.49.19-.94.44-1.34.76-.41.33-.77.72-1.09,1.16-.33.47-.6.99-.83,1.56-.15.37-.27.77-.37,1.18-.11.42-.19.86-.25,1.32-.06.46-.11.94-.13,1.42-.02.5-.02,1.01,0,1.52.02.49.06.99.12,1.5.06.51.14,1.02.23,1.53.1.52.21,1.03.34,1.53.13.5.28,1,.44,1.5.4,1.2.89,2.35,1.46,3.39.55,1.01,1.17,1.92,1.86,2.7.66.74,1.37,1.36,2.13,1.8.71.42,1.47.69,2.26.79.32.04.66.07,1,.1.38.03.76.05,1.14.07.41.02.82.03,1.24.03.45,0,.9,0,1.36,0,.48,0,.97-.02,1.46-.04.51-.02,1.02-.04,1.52-.07.52-.03,1.04-.06,1.56-.1.57-.04,1.09-.09,1.55-.13l.33-.03c.35-.03.65-.06.96-.1.28-.03.52-.06.73-.1.22-.04.41-.09.58-.15.17-.06.31-.13.46-.22.14-.09.26-.19.39-.31.12-.12.25-.27.37-.44.13-.17.25-.36.39-.57.14-.22.3-.47.48-.77l.27-.44c.3-.48.59-.97.86-1.47.27-.5.54-1,.79-1.51.26-.52.5-1.02.73-1.53.24-.51.48-1.05.73-1.59.23-.5.46-1.01.71-1.54.25-.53.5-1.05.75-1.57.26-.53.53-1.05.81-1.57.28-.52.58-1.05.89-1.58.03-.06.07-.11.12-.16.04-.05.09-.1.15-.15.06-.05.12-.1.18-.15M54.86,73.72s-.09.05-.13.08c-.05.03-.09.07-.13.1-.04.03-.07.06-.09.1-.03.03-.05.06-.07.09-.31.51-.6,1.03-.88,1.55-.28.52-.55,1.04-.8,1.55-.26.54-.51,1.05-.75,1.56-.24.51-.47,1.02-.71,1.53-.24.53-.49,1.06-.73,1.59-.25.54-.5,1.06-.74,1.54-.26.52-.52,1.03-.8,1.53-.28.51-.57,1.01-.88,1.5l-.27.44c-.18.29-.34.54-.49.77-.15.23-.29.43-.41.61-.14.19-.28.36-.43.5-.15.15-.31.27-.48.38-.18.11-.36.2-.57.27-.2.07-.42.12-.67.17-.23.04-.48.08-.76.11-.26.03-.59.06-.96.1l-.33.03c-.51.05-1.04.1-1.56.13-.49.04-1.02.07-1.57.1-.49.03-1,.05-1.53.07-.48.02-.97.03-1.47.04-.46,0-.92,0-1.37,0-.43,0-.85-.01-1.26-.03-.41-.02-.79-.04-1.16-.07-.36-.03-.7-.06-1.03-.1-.87-.11-1.7-.4-2.47-.86-.81-.48-1.57-1.13-2.27-1.92-.72-.81-1.37-1.76-1.93-2.8-.59-1.08-1.09-2.26-1.5-3.49-.16-.49-.31-1.01-.45-1.54-.13-.52-.25-1.05-.35-1.57-.1-.53-.18-1.05-.24-1.57-.06-.51-.1-1.03-.12-1.54-.02-.53-.02-1.05,0-1.56.02-.51.06-1,.13-1.48.07-.48.15-.94.26-1.38.11-.43.24-.85.4-1.25.24-.61.54-1.18.89-1.68.34-.49.74-.92,1.2-1.28.44-.35.94-.64,1.49-.85.53-.2,1.11-.33,1.73-.38.85-.07,1.7-.13,2.57-.17.85-.05,1.7-.08,2.57-.11.84-.03,1.69-.04,2.54-.05.85,0,1.69,0,2.53.02.85.02,1.7.05,2.54.08.86.04,1.7.09,2.53.15.83.06,1.69.13,2.56.22.88.09,1.74.18,2.58.28.48.06.9.2,1.26.39.36.19.67.44.94.72.25.26.47.56.67.87.14.22.27.44.41.67l.12-.07.05.37c.24.42.47.83.74,1.17.27.33.57.6.96.74h.05s.1.04.1.04c.12.02.23.04.34.05l.24.03.27.02.31.02.29.02.29-.02.31-.02.27-.02.24-.03c.12-.02.23-.03.34-.05l.1-.02h.05c.76-.3,1.23-1.09,1.69-1.9v-.21h.12c.15-.27.3-.53.47-.78.2-.31.42-.6.67-.87.27-.28.58-.53.94-.72.36-.19.78-.33,1.26-.39.84-.1,1.7-.2,2.58-.28.87-.09,1.72-.16,2.56-.22.83-.06,1.68-.11,2.53-.15.84-.04,1.68-.07,2.54-.08.84-.02,1.68-.02,2.53-.02.85,0,1.69.02,2.54.05.86.03,1.72.06,2.57.11.87.05,1.72.11,2.57.17.27.02.54.06.79.1h0c.26.04.5.1.74.17.24.07.47.15.7.24.23.09.45.2.65.31.34.19.64.4.92.64.29.25.55.52.78.82.23.3.44.63.61.97.18.36.33.73.46,1.13.11.35.2.71.27,1.08.07.39.13.78.16,1.18.03.41.05.83.05,1.27,0,.46-.02.91-.06,1.36-.07.92-.22,1.87-.41,2.82-.21,1.03-.48,2.06-.78,3.05-.34,1.11-.72,2.16-1.11,3.11-.43,1.04-.87,1.96-1.27,2.68-1.54,2.76-3.83,3.97-6.48,4.42-2.6.44-5.53.13-8.41-.18h-.08c-.62-.08-1.25-.14-1.74-.19l-.33-.03c-.38-.04-.71-.07-.96-.1-.28-.03-.53-.07-.76-.11-.25-.05-.47-.1-.67-.17-.21-.07-.39-.16-.57-.27-.17-.11-.33-.23-.48-.38-.15-.14-.29-.31-.43-.5-.27-.35-.54-.79-.9-1.38l-.28-.44c-.31-.49-.6-.99-.88-1.5-.28-.51-.54-1.02-.8-1.53-.48-.97-.97-2.03-1.46-3.1v-.02c-.24-.51-.48-1.03-.72-1.53-.24-.5-.48-1.02-.75-1.56-.25-.51-.52-1.03-.8-1.55-.28-.52-.57-1.04-.88-1.55-.02-.03-.04-.06-.07-.09-.03-.03-.06-.06-.09-.1-.04-.04-.09-.07-.13-.1-.05-.03-.1-.07-.16-.1h0c-.06-.03-.13-.07-.2-.1-.07-.03-.15-.06-.23-.09-.07-.03-.15-.05-.24-.07-.07-.02-.14-.04-.2-.05-.06.02-.13.03-.2.05-.09.02-.17.05-.24.07-.08.03-.15.06-.23.09-.08.03-.15.07-.21.1l-.03.02ZM56.14,71.87l.18.05c.11.03.22.06.33.1l.05.02c.13.04.25.09.36.14l.1.05h0s.23.12.23.12c.11.06.22.13.31.2.1.07.19.14.28.22.09.08.17.16.24.25.07.09.14.18.2.28.33.54.63,1.08.92,1.61.29.53.56,1.07.82,1.6.25.51.5,1.04.75,1.57.25.53.49,1.05.72,1.57h0c.46,1.03.92,2.02,1.44,3.07.25.5.51,1,.77,1.48.27.48.54.96.84,1.43l.28.44c.33.52.57.92.78,1.21.2.27.36.45.53.55.18.11.41.18.75.24.38.06.86.11,1.5.17l.35.03c.65.06,1.2.12,1.74.18h.09c2.68.3,5.4.59,7.77.22,2.32-.36,4.31-1.36,5.58-3.65.38-.68.79-1.54,1.19-2.53.37-.9.73-1.9,1.05-2.95.28-.93.54-1.91.73-2.89.18-.89.31-1.78.38-2.66.03-.43.05-.84.06-1.23,0-.38-.01-.76-.04-1.14-.03-.35-.07-.7-.13-1.02-.06-.32-.13-.62-.22-.9-.1-.3-.21-.6-.36-.87-.13-.26-.29-.51-.46-.73-.17-.22-.35-.41-.56-.59-.2-.17-.42-.33-.67-.46-.15-.08-.31-.16-.48-.23-.17-.07-.35-.13-.53-.18-.19-.05-.38-.1-.59-.13-.2-.04-.42-.06-.64-.08-.87-.07-1.73-.13-2.56-.18-.85-.05-1.69-.08-2.51-.11h0c-.84-.03-1.67-.04-2.5-.05-.83,0-1.66,0-2.49.02-.82.02-1.64.04-2.48.08-.82.04-1.65.09-2.5.15-.85.06-1.68.13-2.51.21-.82.08-1.67.18-2.55.28-.28.03-.52.11-.73.23-.21.11-.4.27-.56.44-.18.19-.35.42-.5.66-.16.26-.31.51-.46.77,0,0-.01.02-.02.03-.61,1.08-1.23,2.16-2.54,2.64-.05.02-.11.04-.17.05-.06.02-.13.03-.2.05-.06.01-.13.02-.22.04-.1.02-.18.03-.25.04l-.27.03-.3.03-.35.03ZM53.73,73.37c-.06.07-.11.14-.15.21-.32.53-.62,1.06-.9,1.59-.29.53-.56,1.06-.81,1.58-.52,1.05-1,2.09-1.47,3.12h0c-.23.52-.47,1.02-.71,1.54-.25.53-.5,1.05-.74,1.55-.25.51-.51,1.01-.78,1.5-.27.49-.55.98-.85,1.46l-.28.44c-.34.55-.6.96-.83,1.28-.11.15-.22.28-.32.39-.11.11-.22.21-.34.28-.12.08-.26.14-.42.19-.15.05-.32.09-.51.12-.2.04-.44.07-.71.1-.23.03-.54.06-.9.09l-.33.03c-.5.05-1.02.09-1.53.13-.49.04-1.01.07-1.56.1-.49.03-1,.05-1.53.07-.47.02-.96.03-1.44.04-.45,0-.89,0-1.33,0-.42,0-.84-.01-1.23-.03-.39-.02-.76-.04-1.11-.06-.35-.03-.68-.06-1-.1-.75-.09-1.47-.36-2.15-.77-.71-.43-1.38-1.01-2-1.72-.66-.75-1.26-1.64-1.79-2.62-.55-1.01-1.02-2.12-1.4-3.28-.16-.48-.3-.97-.43-1.48-.13-.5-.24-1-.33-1.5-.09-.5-.17-1-.23-1.5-.06-.49-.1-.98-.12-1.46-.02-.5-.02-.99,0-1.47.02-.47.06-.94.12-1.38.06-.44.14-.86.24-1.26.1-.4.22-.78.36-1.14.21-.52.46-1.01.76-1.44.29-.42.63-.78,1.01-1.09.37-.29.78-.53,1.24-.7.44-.17.92-.28,1.45-.32.85-.07,1.71-.13,2.57-.18.84-.05,1.68-.08,2.52-.11.84-.03,1.67-.04,2.51-.05.84,0,1.67,0,2.5.02.83.02,1.66.04,2.49.08.85.04,1.69.09,2.52.15.82.06,1.67.13,2.53.22.87.09,1.72.18,2.56.28.36.04.66.15.93.29.27.15.5.33.7.55.21.22.4.47.57.74.16.25.32.53.48.81h0c.29.52.57,1.02.93,1.45.34.41.76.76,1.32.96.04.01.08.03.12.04.05.01.1.02.17.04.07.01.14.03.2.03.05,0,.13.02.23.03l.25.03.29.03.31.02c.35.02.4.02.74,0l.31-.02.29-.03.25-.03c.1-.01.18-.02.23-.03.06,0,.12-.02.2-.04.06-.01.12-.02.17-.04.04-.01.09-.02.12-.04,1.12-.41,1.68-1.4,2.25-2.4,0,0,.01-.02.01-.03.16-.27.31-.55.47-.79.17-.27.36-.52.57-.74.2-.22.43-.4.7-.55.27-.15.58-.25.93-.29.84-.1,1.7-.2,2.56-.28.86-.08,1.7-.16,2.53-.22.83-.06,1.67-.11,2.52-.15.83-.04,1.66-.07,2.49-.08.83-.02,1.66-.02,2.5-.02.84,0,1.68.02,2.51.05.84.03,1.68.06,2.52.11.86.05,1.72.11,2.57.18.24.02.47.05.69.09.22.04.44.09.65.15.21.06.41.13.59.2.19.08.37.16.55.26.28.15.53.33.76.53.24.2.45.43.64.67.2.26.37.53.52.82.15.3.28.62.39.96.1.31.18.64.24.97.07.35.11.71.14,1.08.03.38.04.77.04,1.18,0,.43-.02.85-.06,1.28-.07.89-.21,1.81-.39,2.72-.2,1-.46,1.99-.75,2.94-.33,1.07-.69,2.09-1.07,3.01-.41,1.01-.83,1.89-1.22,2.58-1.37,2.47-3.51,3.55-5.99,3.93-2.44.38-5.2.08-7.91-.21h-.09c-.57-.07-1.14-.13-1.74-.19l-.35-.03c-.66-.06-1.16-.11-1.54-.18-.41-.07-.71-.16-.96-.32-.24-.15-.45-.37-.69-.7-.22-.31-.47-.71-.8-1.24l-.28-.44c-.3-.48-.58-.96-.85-1.46-.27-.5-.53-1-.78-1.5-.5-1.01-.97-2.04-1.45-3.08h0c-.24-.54-.48-1.06-.72-1.58-.24-.51-.49-1.03-.75-1.56-.26-.52-.53-1.05-.81-1.58-.29-.53-.59-1.06-.9-1.59-.04-.07-.09-.14-.15-.21-.06-.07-.12-.14-.19-.2-.07-.06-.14-.12-.22-.18-.06-.04-.12-.08-.19-.12l-.07-.04c-.09-.05-.19-.1-.29-.14-.1-.04-.19-.08-.29-.11h-.03c-.1-.05-.22-.08-.35-.11-.12-.03-.24-.06-.35-.08-.02,0-.04,0-.06-.01-.02,0-.04,0-.06.01-.11.02-.23.05-.35.08-.12.03-.24.07-.34.11-.1.04-.21.08-.32.13-.1.05-.2.09-.28.14h0c-.09.05-.18.11-.26.16-.08.06-.15.11-.22.18-.07.06-.13.13-.19.2ZM53.1,73.29c.06-.1.13-.19.2-.28.07-.09.16-.17.24-.25.09-.08.18-.15.28-.22.1-.07.2-.14.31-.2.11-.06.22-.11.33-.16.11-.05.23-.09.36-.14.13-.04.25-.08.38-.12l.19-.05-.35-.03-.3-.03-.27-.03c-.07,0-.15-.02-.25-.04-.09-.01-.16-.03-.22-.04-.07-.01-.14-.03-.2-.05-.07-.02-.12-.04-.17-.05-.66-.24-1.15-.65-1.55-1.13-.39-.46-.69-1-.99-1.53h0c-.14-.27-.29-.53-.45-.78-.16-.24-.32-.47-.5-.66-.17-.17-.35-.33-.56-.44-.21-.11-.45-.19-.73-.23-.88-.11-1.73-.2-2.55-.28-.83-.08-1.67-.15-2.51-.21-.85-.06-1.69-.11-2.5-.15-.84-.04-1.66-.07-2.48-.08-.83-.02-1.66-.02-2.49-.02-.83,0-1.66.02-2.5.05h0c-.82.03-1.66.06-2.51.11-.83.05-1.68.11-2.56.18-.47.04-.9.13-1.29.28-.4.15-.76.36-1.09.62-.34.27-.64.6-.9.97-.27.39-.5.83-.69,1.32-.13.34-.25.7-.34,1.07-.1.39-.17.79-.23,1.2-.06.43-.1.88-.12,1.33-.02.47-.02.94,0,1.43.02.46.06.94.11,1.42.06.49.13.97.22,1.46.09.49.2.98.32,1.46.12.47.26.96.42,1.44.37,1.13.83,2.21,1.36,3.19.51.94,1.09,1.8,1.72,2.52.58.66,1.2,1.21,1.86,1.6.61.37,1.26.61,1.93.69.31.04.64.07.98.1.36.03.73.05,1.09.06.4.02.81.03,1.22.03.44,0,.88,0,1.32,0,.47,0,.94-.02,1.42-.04.5-.02,1.01-.04,1.51-.07.52-.03,1.04-.06,1.55-.1.56-.04,1.07-.09,1.52-.13l.33-.03c.32-.03.6-.06.89-.09.25-.03.47-.06.67-.09.17-.03.31-.06.43-.1.11-.04.21-.08.29-.13.08-.05.16-.12.24-.2.09-.09.17-.2.27-.33.22-.29.47-.7.81-1.24l.28-.44c.29-.47.57-.95.84-1.43.27-.49.52-.98.77-1.47.27-.54.51-1.04.74-1.53.24-.5.47-1.02.71-1.54h0c.48-1.05.96-2.11,1.47-3.14.26-.53.54-1.07.82-1.6.29-.53.59-1.07.92-1.61Z"/><path class="cls-18" d="M49.49,68.55c2.58-.91,4.62-1.28,6.66-1.24,2.04.04,4.06.5,6.59,1.24l-.05,1.77c-2.52-.74-4.53-1.19-6.55-1.24-2.01-.04-4.04.33-6.6,1.23l-.06-1.77Z"/><path class="cls-16" d="M53.07,67.81c-1.03.19-2.12.49-3.33.91l.04,1.27c1.17-.4,2.23-.69,3.24-.87,1.09-.2,2.12-.29,3.14-.26,1.03.02,2.05.15,3.13.36.99.2,2.04.47,3.19.8l.04-1.28c-1.19-.35-2.27-.63-3.29-.83-1.07-.21-2.07-.33-3.07-.35-1-.02-2.01.06-3.08.26M49.41,68.33c1.3-.46,2.47-.78,3.57-.98,1.1-.2,2.14-.29,3.18-.27,1.04.02,2.06.15,3.15.36,1.08.21,2.23.52,3.51.89l.18.05-.06,2.26-.3-.09c-1.25-.37-2.38-.66-3.44-.87-1.06-.21-2.05-.33-3.04-.35-.99-.02-1.99.06-3.05.26-1.06.2-2.2.51-3.47.96l-.31.11-.08-2.27.16-.06Z"/><path class="cls-4" d="M39.83,80.5c1.58-1.21,3.53-5.73.44-7.32-11.66-6.02,16.55-6.17,7.17,6.56-7.55,10.24-8.82,1.7-7.6.77"/><path class="cls-4" d="M28.73,68.74c-1.84.33-3.1.95-3.01,3.47.14,3.96,1.21,9.24,3.29,12.85,1.15,1.99,1.67,2.68,3.77,2.79,2.12.11,5.17-.36,7.24-.8.58-.12.99-.21,1.3-.3-5.1.12-7.79.51-9.39-.6-3.5-2.67-4.88-10.12-4.53-13.72.39-4.03,3.49-4.08,1.32-3.69"/><path class="cls-4" d="M71.7,80.59c-1.58-1.21-3.53-5.73-.44-7.32,11.66-6.02-16.55-6.17-7.17,6.56,7.55,10.24,8.82,1.7,7.6.77"/><path class="cls-4" d="M82.79,68.83c1.84.33,3.1.95,3.01,3.47-.14,3.96-1.21,9.24-3.29,12.85-1.15,1.99-1.67,2.68-3.77,2.79-2.12.11-5.17-.36-7.24-.8-.58-.12-.99-.21-1.3-.3,5.1.12,7.79.51,9.39-.6,3.5-2.67,4.88-10.12,4.53-13.72-.39-4.03-3.49-4.08-1.32-3.69"/><text class="cls-13" transform="translate(167.3 104.04)"><tspan x="0" y="0">LIC</tspan></text><text class="cls-13" transform="translate(190.66 104.04)"><tspan x="0" y="0">ORERA</tspan></text><path class="cls-12" d="M225.66,48.76c-.06.34-.16.76-.29,1.27-.14.5-.29,1.03-.45,1.59-.16.56-.31,1.1-.45,1.64-.14.53-.24,1.01-.31,1.43-.07.42-.08.74-.03.97.05.23.18.32.39.25.17-.05.36-.25.58-.62.22-.37.44-.81.66-1.32.22-.52.45-1.07.67-1.67.22-.6.42-1.16.61-1.67.08-.19.22-.33.41-.42.19-.09.37-.12.54-.11.17.02.31.09.42.22.11.13.12.31.04.54-.16.54-.35,1.1-.56,1.7-.21.6-.44,1.2-.68,1.79-.24.59-.5,1.15-.77,1.67-.27.53-.53.97-.8,1.34-.42.54-.89.93-1.41,1.18-.53.24-1.05.35-1.56.3-.51-.04-.97-.22-1.37-.53-.4-.31-.67-.74-.81-1.29-.18-.72-.23-1.47-.12-2.26.1-.79.24-1.51.42-2.15.18-.64.33-1.17.46-1.59.13-.42.14-.61.04-.59-.13.02-.32.21-.58.57-.26.36-.53.84-.82,1.45-.29.61-.56,1.33-.84,2.14-.27.81-.48,1.68-.64,2.6-.11.66-.34,1.14-.69,1.43-.35.29-.73.43-1.14.42-.42-.01-.81-.15-1.19-.41-.38-.26-.65-.61-.8-1.05-.11-.27-.17-.66-.18-1.16,0-.5.01-1.06.06-1.68.05-.62.13-1.27.23-1.95.1-.68.22-1.34.34-1.97.13-.63.26-1.21.4-1.75.14-.53.28-.96.42-1.29.12-.34.41-.6.86-.78.45-.18.92-.25,1.4-.2.48.04.89.21,1.24.49.35.28.46.7.34,1.25-.12.56-.26,1.11-.43,1.67-.17.56-.37,1.16-.59,1.8.41-.94.87-1.82,1.4-2.61.53-.8.99-1.41,1.38-1.85.33-.37.75-.63,1.26-.77.51-.15,1-.17,1.47-.08.47.1.85.32,1.15.66.29.35.39.82.3,1.41M209.56,54.86c.05-.53.31-.91.78-1.13.2-.56.35-1.1.43-1.62.09-.52.08-.95,0-1.29-.16-.53-.44-.83-.85-.89-.41-.07-.76.02-1.05.26.11,0,.22.03.34.09.12.06.21.16.28.28.07.13.09.27.07.43-.02.16-.12.32-.31.47-.4.39-.74.87-1.03,1.44-.29.57-.49,1.13-.61,1.69-.12.56-.13,1.05-.05,1.49.08.43.3.7.64.8.19.06.41-.04.65-.3.24-.26.48-.62.73-1.07-.05-.19-.05-.4-.01-.64ZM213.04,48.4c.38.67.6,1.46.67,2.35.07.89,0,1.82-.18,2.78.27-.09.51-.26.71-.51.2-.25.36-.51.48-.78.12-.27.22-.53.3-.77.08-.25.14-.43.18-.56.08-.26.19-.43.34-.53.15-.1.29-.14.43-.12.14.02.26.08.35.18.1.1.14.25.12.44-.04.28-.14.68-.31,1.2-.17.52-.42,1.07-.75,1.64-.33.57-.73,1.11-1.21,1.62-.48.51-1.05.88-1.7,1.1-.31.52-.66.99-1.04,1.43-.39.43-.81.79-1.29,1.08-.47.29-.99.48-1.54.57-.55.1-1.14.06-1.76-.09-.9-.22-1.58-.68-2.04-1.4-.46-.71-.76-1.52-.89-2.41-.13-.89-.13-1.8.01-2.71.14-.92.37-1.69.67-2.31.19-1.13.66-2.02,1.4-2.68.74-.65,1.57-1.07,2.48-1.26.91-.19,1.8-.14,2.65.15.86.29,1.5.82,1.91,1.57ZM190.35,56.48c-.02-.17-.03-.38-.03-.62,0-.24.02-.52.03-.81-.38.31-.7.58-.96.82-.26.24-.44.45-.55.62-.29.5-.37.84-.23,1.04.13.2.35.31.65.34s.63,0,1-.07c.37-.07.66-.14.87-.21-.21,0-.4-.12-.55-.37-.15-.25-.23-.5-.24-.73ZM189.11,50.34c.2.21.16.37-.12.48-.27.11-.67.15-1.18.12-.51-.03-1.09-.14-1.75-.32-.65-.18-1.26-.45-1.82-.81-.56-.36-1.02-.82-1.37-1.36-.35-.55-.49-1.21-.42-2,.12-1.26.5-2.46,1.13-3.61.63-1.15,1.43-2.18,2.4-3.1.97-.91,2.08-1.66,3.32-2.25,1.24-.59,2.55-.96,3.9-1.11,1.64-.18,3.07-.06,4.3.36,1.23.42,2.28,1.06,3.13,1.9.86.84,1.53,1.85,2.02,3.02.49,1.17.81,2.43.95,3.76.14,1.34.12,2.71-.08,4.1-.2,1.4-.55,2.74-1.05,4.03-.61,1.54-1.44,2.85-2.49,3.91-1.05,1.06-2.3,1.95-3.73,2.66-1.35.67-2.7,1.1-4.06,1.29-1.36.2-2.57.17-3.62-.09-1.06-.26-1.89-.74-2.49-1.45-.6-.71-.81-1.64-.65-2.8.08-.49.27-1.02.59-1.58.32-.56.73-1.12,1.23-1.67.5-.55,1.06-1.1,1.69-1.63.63-.53,1.29-1.03,1.98-1.49.17-1.09.36-2.2.57-3.35.21-1.14.39-2.2.54-3.17.15-.97.27-1.82.36-2.54.09-.73.1-1.22.03-1.47-.07-.32.08-.47.45-.46.37.01.81.12,1.3.33.49.2.96.48,1.4.82.44.34.7.69.77,1.05.05.25.06.62.04,1.08-.02.47-.08,1.01-.16,1.62-.08.61-.19,1.28-.31,2-.12.73-.26,1.47-.42,2.24.32.12.6.34.83.67.23.33.41.64.53.95.12.31.17.57.14.78-.03.21-.15.28-.36.2-.11-.04-.32,0-.64.14-.32.13-.71.32-1.17.57-.21,1-.4,1.93-.57,2.77-.16.84-.29,1.51-.39,2,.47-.14.97-.38,1.52-.73.55-.35,1.08-.83,1.62-1.44.53-.61,1.01-1.34,1.44-2.2.43-.86.75-1.87.96-3.02.19-1.03.26-2.05.19-3.07-.06-1.02-.23-1.98-.49-2.88-.26-.9-.62-1.71-1.09-2.44-.46-.73-1-1.31-1.63-1.74-.63-.43-1.32-.69-2.09-.76-.77-.07-1.58.08-2.45.46-.82.36-1.47.87-1.95,1.54-.48.67-.83,1.39-1.07,2.18-.24.78-.38,1.59-.43,2.43-.05.84-.04,1.62.03,2.33.07.71.16,1.32.29,1.81.13.5.24.8.35.9Z"/><path class="cls-12" d="M235.61,70.01c-.25-.16-.6-.17-1.05-.04-.45.13-.93.27-1.44.4-.51.13-1.02.24-1.54.31-.51.07-.94-.03-1.27-.31-.46-.36-.78-.91-.96-1.65-.18-.74-.25-1.51-.2-2.31.05-.8.18-1.56.39-2.26.21-.7.48-1.22.8-1.56.24-.25.55-.45.91-.6.37-.15.76-.24,1.17-.27.41-.03.81,0,1.2.07.39.07.69.21.9.41.29.28.6.55.91.82.31.26.53.49.66.7.04.08.4-.03,1.07-.33.67-.3,1.47-.6,2.39-.91.92-.31,1.86-.51,2.83-.61.96-.1,1.78.09,2.45.57.71.52,1.02,1.28.94,2.26-.08.99-.37,2.08-.86,3.29-.49,1.2-1.1,2.46-1.84,3.77-.74,1.31-1.41,2.53-2.03,3.65-.62,1.12-1.07,2.1-1.36,2.93-.29.83-.25,1.36.12,1.6.25.16.59.09,1.01-.21.43-.3.89-.74,1.39-1.32.5-.59,1.03-1.29,1.59-2.1.56-.81,1.1-1.64,1.62-2.47.52-.83.99-1.64,1.4-2.43.42-.79.74-1.47.98-2.06.08-.17.29-.32.64-.48.35-.15.72-.23,1.11-.24.39,0,.72.05.99.17.27.12.35.34.23.67-.66,2.11-1.57,4.23-2.74,6.35-1.17,2.12-2.5,4.14-3.98,6.06-.88,1.13-1.84,1.99-2.88,2.59-1.04.6-2.07.97-3.09,1.11-1.03.14-1.99.08-2.9-.19-.91-.27-1.67-.75-2.28-1.44-.61-.69-1.02-1.54-1.22-2.57-.21-1.02-.12-2.2.27-3.52.19-.7.52-1.5.97-2.39.46-.89.9-1.72,1.34-2.49.44-.77.8-1.43,1.1-2,.3-.56.38-.88.26-.96M217.98,70.36c-.25-.16-.6-.17-1.05-.04-.45.13-.93.27-1.44.4-.51.13-1.02.24-1.54.31-.51.07-.94-.03-1.27-.31-.46-.36-.78-.91-.96-1.65-.18-.74-.25-1.51-.2-2.31.05-.8.17-1.56.39-2.26.21-.7.48-1.22.8-1.56.24-.25.55-.45.91-.6.37-.15.76-.24,1.17-.27.41-.03.81,0,1.2.07.39.07.69.21.9.41.29.28.6.55.91.81.31.26.53.49.66.7.04.08.4-.03,1.07-.33.67-.3,1.47-.6,2.39-.91.92-.31,1.86-.51,2.83-.61.96-.1,1.78.09,2.45.57.71.52,1.02,1.28.94,2.26-.08.99-.37,2.08-.86,3.29-.49,1.2-1.1,2.46-1.84,3.77-.74,1.31-1.41,2.53-2.03,3.65-.62,1.12-1.07,2.1-1.36,2.93-.29.83-.25,1.36.12,1.6.25.16.59.09,1.01-.21.43-.3.89-.74,1.39-1.32.5-.59,1.03-1.29,1.59-2.1.56-.81,1.1-1.64,1.62-2.47.52-.83.99-1.64,1.4-2.43.42-.79.74-1.47.98-2.06.08-.17.29-.32.64-.48.35-.15.72-.23,1.11-.24.39,0,.72.05.99.17.27.12.35.34.23.67-.66,2.11-1.57,4.23-2.74,6.35-1.17,2.12-2.5,4.14-3.98,6.06-.88,1.13-1.84,1.99-2.88,2.59-1.04.6-2.07.97-3.09,1.11-1.03.14-1.99.08-2.9-.19-.91-.27-1.67-.75-2.28-1.44-.61-.69-1.02-1.54-1.22-2.57-.21-1.02-.12-2.2.27-3.52.19-.7.52-1.5.97-2.39.46-.89.9-1.72,1.34-2.49.44-.77.8-1.44,1.1-2,.3-.56.38-.88.26-.96ZM201.83,77.71c.1-1.03.6-1.76,1.5-2.19.39-1.08.67-2.12.83-3.13.17-1.01.16-1.84-.02-2.5-.31-1.02-.85-1.6-1.64-1.73-.78-.13-1.46.04-2.03.5.21,0,.42.05.65.17.23.12.41.3.54.54.13.24.17.52.14.83-.04.31-.23.61-.6.91-.77.76-1.43,1.68-1.98,2.78-.55,1.1-.94,2.19-1.17,3.26-.23,1.07-.26,2.03-.1,2.87.16.84.57,1.36,1.23,1.55.37.12.79-.08,1.25-.58.46-.5.93-1.19,1.41-2.06-.09-.37-.1-.78-.02-1.23ZM208.56,65.24c.72,1.3,1.16,2.82,1.29,4.54.14,1.72.02,3.52-.36,5.37.53-.17.99-.5,1.37-.98.38-.48.69-.98.93-1.5.24-.52.43-1.02.59-1.49.16-.48.27-.84.35-1.09.15-.5.37-.84.66-1.03.28-.19.56-.27.83-.23.27.04.5.15.69.36.19.2.27.49.23.86-.07.54-.27,1.31-.6,2.33-.33,1.01-.81,2.07-1.45,3.18-.64,1.1-1.42,2.15-2.34,3.13-.93.98-2.02,1.7-3.29,2.13-.6,1-1.27,1.92-2.01,2.75-.74.84-1.57,1.53-2.49,2.09-.91.55-1.9.92-2.97,1.11-1.07.19-2.2.13-3.4-.18-1.74-.42-3.05-1.32-3.94-2.7-.89-1.38-1.47-2.93-1.73-4.65-.26-1.72-.25-3.47.02-5.24.27-1.77.71-3.26,1.3-4.47.37-2.19,1.27-3.91,2.71-5.17,1.44-1.26,3.03-2.08,4.8-2.44,1.76-.36,3.47-.26,5.13.3,1.66.56,2.89,1.58,3.7,3.04ZM171.35,49.56c.4-.75.99-1.26,1.79-1.55.8-.28,1.65-.38,2.55-.3.91.08,1.81.28,2.7.59.89.31,1.65.69,2.27,1.13.63.44,1.06.88,1.29,1.33.24.45.15.84-.25,1.18-.61.46-1.24,1.33-1.89,2.6-.65,1.27-1.27,2.68-1.86,4.23-.59,1.55-1.12,3.16-1.6,4.81-.48,1.65-.85,3.12-1.12,4.4.84-1.21,1.91-2.33,3.2-3.36,1.3-1.03,2.61-1.77,3.94-2.21,1.33-.44,2.56-.5,3.7-.2,1.14.31,1.99,1.19,2.55,2.66.26.69.33,1.58.21,2.65-.12,1.07-.35,2.22-.67,3.44-.33,1.22-.7,2.44-1.13,3.66-.43,1.22-.8,2.34-1.11,3.35-.31,1.01-.51,1.86-.6,2.54-.09.68.01,1.06.3,1.14.25.08.65-.22,1.22-.89.56-.67,1.16-1.54,1.8-2.63.64-1.08,1.26-2.28,1.87-3.58.61-1.31,1.11-2.56,1.5-3.76.19-.58.46-.97.81-1.16.35-.19.68-.25,1.01-.17.33.08.6.23.81.48.21.24.28.51.2.8-.19.83-.49,1.86-.89,3.1-.41,1.24-.93,2.55-1.56,3.92-.63,1.37-1.35,2.72-2.17,4.05-.82,1.33-1.73,2.46-2.74,3.39-.61.59-1.41.96-2.41,1.13-1,.16-2,.12-2.99-.13-.99-.25-1.88-.73-2.65-1.46-.78-.73-1.26-1.68-1.44-2.87-.23-1.39-.19-2.89.13-4.48.32-1.59.67-3.06,1.05-4.4.38-1.34.69-2.46.92-3.35.23-.89.18-1.31-.15-1.26-.45.05-.96.32-1.53.8-.57.48-1.12,1.32-1.65,2.5-.53,1.18-1.03,2.79-1.51,4.81-.47,2.02-.82,4.58-1.05,7.67-.07.82-.47,1.44-1.2,1.84-.73.41-1.53.58-2.4.51-.86-.07-1.67-.41-2.43-1.03-.75-.62-1.18-1.57-1.29-2.84-.11-1.19-.14-2.72-.09-4.59.05-1.87.16-3.9.34-6.08.18-2.18.42-4.41.7-6.68.28-2.27.61-4.43.98-6.5.37-2.06.77-3.9,1.19-5.51.42-1.61.87-2.86,1.35-3.73Z"/><path class="cls-12" d="M258.43,80.72c.12-1.18.69-2.01,1.71-2.5.45-1.23.76-2.42.95-3.58.19-1.16.18-2.11-.02-2.86-.35-1.17-.98-1.83-1.87-1.97-.9-.15-1.67.04-2.32.57.23,0,.48.06.74.2.26.14.47.34.61.62.15.28.2.6.16.95-.04.35-.27.7-.68,1.04-.88.86-1.63,1.92-2.26,3.18-.63,1.26-1.08,2.5-1.34,3.73-.26,1.23-.3,2.32-.11,3.28.18.96.65,1.55,1.41,1.77.43.13.9-.09,1.43-.66.53-.57,1.07-1.36,1.61-2.36-.1-.42-.11-.89-.03-1.41M266.12,66.46c.83,1.49,1.32,3.22,1.48,5.19.16,1.97.02,4.02-.41,6.14.61-.2,1.13-.57,1.56-1.12.44-.55.79-1.12,1.06-1.71.27-.59.49-1.16.67-1.71.18-.54.31-.96.4-1.24.18-.57.43-.96.75-1.18.32-.22.64-.31.95-.27.31.04.57.18.78.41.22.23.3.56.27.98-.08.61-.31,1.5-.69,2.66-.38,1.16-.93,2.37-1.66,3.63-.73,1.26-1.62,2.45-2.68,3.58-1.06,1.13-2.31,1.94-3.76,2.44-.68,1.14-1.45,2.19-2.3,3.15-.85.96-1.8,1.75-2.84,2.38-1.05.63-2.18,1.05-3.4,1.27-1.22.21-2.51.14-3.88-.21-1.98-.48-3.49-1.51-4.5-3.08-1.02-1.58-1.68-3.35-1.97-5.32-.3-1.97-.29-3.97.02-6,.31-2.03.81-3.73,1.49-5.11.09-.33.16-.65.23-.96.06-.31.14-.6.23-.89.13-.66.3-1.39.52-2.2.22-.8.49-1.6.8-2.38.31-.78.66-1.54,1.05-2.28.38-.74.78-1.39,1.2-1.96,1.1-1.53,2.55-2.81,4.37-3.86,1.81-1.05,3.76-1.92,5.84-2.62,2.08-.7,4.22-1.27,6.42-1.71,2.2-.44,4.27-.84,6.22-1.18,1.94-.34,3.67-.71,5.16-1.09,1.5-.38,2.59-.86,3.29-1.44.37-.29.67-.01.9.83.23.84.3,1.89.2,3.13-.09,1.25-.4,2.52-.91,3.83-.51,1.3-1.33,2.29-2.44,2.98-.65.39-1.57.63-2.77.72-1.2.09-2.56.12-4.09.08-1.53-.04-3.14-.09-4.83-.15-1.69-.06-3.35-.04-4.97.06-1.62.1-3.13.33-4.54.69-1.4.36-2.57.94-3.49,1.76,2.01-.46,3.99-.38,5.93.24,1.94.62,3.4,1.79,4.37,3.51Z"/><path class="cls-12" d="M145.13,61.54c1.89-.62,3.75-1.53,5.58-2.75,1.82-1.22,3.5-2.57,5.03-4.04,1.53-1.47,2.89-3,4.07-4.59,1.18-1.58,2.09-3.07,2.73-4.47.64-1.4.95-2.62.92-3.66-.02-1.04-.44-1.78-1.26-2.23-1.11-.56-2.52-.24-4.23.95-1.71,1.19-3.44,2.87-5.19,5.04-1.75,2.17-3.33,4.67-4.75,7.5-1.42,2.83-2.39,5.58-2.91,8.25M129.48,76.93c-1.38.43-2.74.75-4.1.95-1.35.2-2.64.27-3.85.21-1.21-.06-2.3-.3-3.26-.72-.96-.41-1.74-1.05-2.33-1.9-1.01-1.42-1.52-2.96-1.52-4.61,0-1.65.28-3.26.86-4.83.58-1.57,1.33-3.05,2.25-4.42.93-1.38,1.87-2.51,2.84-3.39.96-.89,1.81-1.48,2.52-1.78.72-.3,1.17-.2,1.35.32.12.46.23,1.27.31,2.42.08,1.15.31,2.28.67,3.37.37,1.09.95,1.96,1.74,2.61.79.65,1.96.64,3.51-.03.66-4.58,1.89-8.91,3.69-12.99,1.8-4.08,3.99-7.63,6.59-10.66,2.6-3.03,5.53-5.41,8.79-7.15,3.26-1.74,6.68-2.62,10.26-2.63,1.96.02,3.6.42,4.92,1.2,1.32.78,2.35,1.76,3.09,2.93.75,1.17,1.23,2.46,1.46,3.87.23,1.41.27,2.72.12,3.94-.39,3.59-1.47,6.88-3.23,9.86-1.76,2.98-3.87,5.67-6.34,8.06-2.47,2.39-5.08,4.49-7.85,6.31-2.77,1.82-5.38,3.3-7.84,4.44-.28,3.13-.16,5.91.38,8.36.54,2.44,1.36,4.39,2.46,5.84,1.1,1.45,2.42,2.36,3.95,2.74,1.54.37,3.24.04,5.09-1.01,1.86-1.05,3.77-2.85,5.74-5.4,1.97-2.55,3.95-6.04,5.95-10.47.5-1.11,1.05-1.88,1.64-2.33.6-.45,1.11-.61,1.55-.51.44.11.76.42.97.93.21.52.21,1.12,0,1.82-1.96,5.99-4.32,10.98-7.07,14.96-2.75,3.98-5.64,6.99-8.66,9.01-3.02,2.02-6.05,3.11-9.08,3.26-3.03.15-5.79-.61-8.28-2.26-2.49-1.66-4.57-4.19-6.26-7.59-1.68-3.4-2.69-7.65-3.02-12.72Z"/><path class="cls-12" d="M287.26,64.61c-.75-.74-1.78-1.2-2.92-1.2s-2.18.46-2.92,1.2c-.75.74-1.21,1.77-1.21,2.9s.46,2.16,1.21,2.9c.75.74,1.78,1.2,2.92,1.2s2.18-.46,2.92-1.2c.75-.74,1.21-1.77,1.21-2.9s-.46-2.16-1.21-2.9M284.33,62.52c1.39,0,2.64.56,3.55,1.46.91.91,1.47,2.15,1.47,3.53s-.56,2.63-1.47,3.53c-.91.9-2.17,1.46-3.55,1.46s-2.64-.56-3.55-1.46c-.91-.91-1.47-2.15-1.47-3.53s.56-2.63,1.47-3.53c.91-.9,2.17-1.46,3.55-1.46Z"/><path class="cls-12" d="M283.28,66.93h.82c.53,0,.86-.02.99-.07.13-.04.24-.12.31-.23.08-.11.11-.25.11-.41,0-.19-.05-.33-.15-.45-.1-.11-.24-.19-.42-.21-.09-.01-.36-.02-.81-.02h-.86v1.39ZM282.17,70.09v-5.48h2.33c.59,0,1.01.05,1.28.15.27.1.48.27.64.52.16.25.24.54.24.86,0,.41-.12.75-.36,1.02s-.6.44-1.08.51c.24.14.44.29.59.46.16.17.37.46.63.89l.67,1.07h-1.32l-.79-1.2c-.28-.43-.48-.69-.59-.8-.1-.11-.22-.19-.33-.23-.12-.04-.31-.06-.56-.06h-.22v2.29h-1.11Z"/></g></svg>